<svg xmlns="http://www.w3.org/2000/svg" viewBox="0 0 800 600" width="800" height="600"><defs>
      <radialGradient id="bg-e-5" cx="50%" cy="30%" r="60%">
        <stop offset="0%" stop-color="#faf8f4"/>
        <stop offset="100%" stop-color="#e0d5c7"/>
      </radialGradient>
    </defs>
    <rect width="800" height="600" fill="url(#bg-e-5)"/><circle cx="400" cy="160" r="8" fill="#aa8545" opacity="0.3"/><line x1="400" y1="0" x2="400" y2="160" stroke="#aa8545" stroke-width="1" opacity="0.2"/><line x1="400" y1="160" x2="400" y2="100" stroke="#aa8545" stroke-width="1" opacity="0.2"/><ellipse cx="398" cy="105" rx="3" ry="5.048206280030502" fill="#aa8545" opacity="0.15"/><ellipse cx="402" cy="117" rx="3" ry="7.0409439904996605" fill="#aa8545" opacity="0.14"/><ellipse cx="405" cy="129" rx="3" ry="4.897853019552168" fill="#aa8545" opacity="0.18"/><line x1="400" y1="160" x2="517" y2="119" stroke="#aa8545" stroke-width="1" opacity="0.2"/><ellipse cx="517" cy="124" rx="3" ry="6.846858440755735" fill="#aa8545" opacity="0.22"/><ellipse cx="522" cy="136" rx="3" ry="5.584278871849439" fill="#aa8545" opacity="0.21"/><ellipse cx="513" cy="148" rx="3" ry="4.884181558046659" fill="#aa8545" opacity="0.12"/><line x1="400" y1="160" x2="498" y2="194" stroke="#aa8545" stroke-width="1" opacity="0.2"/><ellipse cx="488" cy="199" rx="3" ry="7.5476862318326585" fill="#aa8545" opacity="0.17"/><ellipse cx="506" cy="211" rx="3" ry="7.406129883049177" fill="#aa8545" opacity="0.21"/><ellipse cx="502" cy="223" rx="3" ry="7.82595977543477" fill="#aa8545" opacity="0.21"/><line x1="400" y1="160" x2="400" y2="210" stroke="#aa8545" stroke-width="1" opacity="0.2"/><ellipse cx="395" cy="215" rx="3" ry="4.657403963298913" fill="#aa8545" opacity="0.14"/><ellipse cx="393" cy="227" rx="3" ry="7.563153948228019" fill="#aa8545" opacity="0.17"/><ellipse cx="404" cy="239" rx="3" ry="6.532515332598719" fill="#aa8545" opacity="0.25"/><line x1="400" y1="160" x2="287" y2="199" stroke="#aa8545" stroke-width="1" opacity="0.2"/><ellipse cx="289" cy="204" rx="3" ry="4.3039310949891165" fill="#aa8545" opacity="0.11"/><ellipse cx="278" cy="216" rx="3" ry="4.263828981913467" fill="#aa8545" opacity="0.18"/><ellipse cx="286" cy="228" rx="3" ry="7.584473484740102" fill="#aa8545" opacity="0.11"/><line x1="400" y1="160" x2="328" y2="135" stroke="#aa8545" stroke-width="1" opacity="0.2"/><ellipse cx="328" cy="140" rx="3" ry="6.254504714398184" fill="#aa8545" opacity="0.23"/><ellipse cx="322" cy="152" rx="3" ry="4.7159622858427115" fill="#aa8545" opacity="0.14"/><ellipse cx="325" cy="164" rx="3" ry="5.869358848658725" fill="#aa8545" opacity="0.19"/><ellipse cx="400" cy="520" rx="300" ry="30" fill="#70503d" opacity="0.08"/><ellipse cx="400" cy="510" rx="280" ry="6" fill="#aa8545" opacity="0.06"/><path d="M225.2548635613684,489.2459956549536 L217.2548635613684,459.2459956549536 Q225.2548635613684,444.2459956549536 233.2548635613684,459.2459956549536 Z" fill="none" stroke="#aa8545" stroke-width="0.8" opacity="0.15"/><line x1="225.2548635613684" y1="489.2459956549536" x2="225.2548635613684" y2="504.2459956549536" stroke="#aa8545" stroke-width="0.5" opacity="0.12"/><line x1="217.2548635613684" y1="504.2459956549536" x2="233.2548635613684" y2="504.2459956549536" stroke="#aa8545" stroke-width="0.5" opacity="0.12"/><path d="M334.89811393888493,486.3005053776321 L326.89811393888493,456.3005053776321 Q334.89811393888493,441.3005053776321 342.89811393888493,456.3005053776321 Z" fill="none" stroke="#aa8545" stroke-width="0.8" opacity="0.15"/><line x1="334.89811393888493" y1="486.3005053776321" x2="334.89811393888493" y2="501.3005053776321" stroke="#aa8545" stroke-width="0.5" opacity="0.12"/><line x1="326.89811393888493" y1="501.3005053776321" x2="342.89811393888493" y2="501.3005053776321" stroke="#aa8545" stroke-width="0.5" opacity="0.12"/><path d="M425.1879781532921,487.17446914610866 L417.1879781532921,457.17446914610866 Q425.1879781532921,442.17446914610866 433.1879781532921,457.17446914610866 Z" fill="none" stroke="#aa8545" stroke-width="0.8" opacity="0.15"/><line x1="425.1879781532921" y1="487.17446914610866" x2="425.1879781532921" y2="502.17446914610866" stroke="#aa8545" stroke-width="0.5" opacity="0.12"/><line x1="417.1879781532921" y1="502.17446914610866" x2="433.1879781532921" y2="502.17446914610866" stroke="#aa8545" stroke-width="0.5" opacity="0.12"/><path d="M502.6060780348313,480.176912024782 L494.6060780348313,450.176912024782 Q502.6060780348313,435.176912024782 510.6060780348313,450.176912024782 Z" fill="none" stroke="#aa8545" stroke-width="0.8" opacity="0.15"/><line x1="502.6060780348313" y1="480.176912024782" x2="502.6060780348313" y2="495.176912024782" stroke="#aa8545" stroke-width="0.5" opacity="0.12"/><line x1="494.6060780348313" y1="495.176912024782" x2="510.6060780348313" y2="495.176912024782" stroke="#aa8545" stroke-width="0.5" opacity="0.12"/><path d="M626.7211113001416,490.85886269887806 L618.7211113001416,460.85886269887806 Q626.7211113001416,445.85886269887806 634.7211113001416,460.85886269887806 Z" fill="none" stroke="#aa8545" stroke-width="0.8" opacity="0.15"/><line x1="626.7211113001416" y1="490.85886269887806" x2="626.7211113001416" y2="505.85886269887806" stroke="#aa8545" stroke-width="0.5" opacity="0.12"/><line x1="618.7211113001416" y1="505.85886269887806" x2="634.7211113001416" y2="505.85886269887806" stroke="#aa8545" stroke-width="0.5" opacity="0.12"/></svg>