<svg xmlns="http://www.w3.org/2000/svg" viewBox="0 0 800 600" width="800" height="600"><defs>
      <radialGradient id="bg-e-4" cx="50%" cy="30%" r="60%">
        <stop offset="0%" stop-color="#faf8f4"/>
        <stop offset="100%" stop-color="#e0d5c7"/>
      </radialGradient>
    </defs>
    <rect width="800" height="600" fill="url(#bg-e-4)"/><circle cx="400" cy="160" r="8" fill="#aa8545" opacity="0.3"/><line x1="400" y1="0" x2="400" y2="160" stroke="#aa8545" stroke-width="1" opacity="0.2"/><line x1="400" y1="160" x2="400" y2="102" stroke="#aa8545" stroke-width="1" opacity="0.2"/><ellipse cx="403" cy="107" rx="3" ry="6.206838567002526" fill="#aa8545" opacity="0.19"/><ellipse cx="400" cy="119" rx="3" ry="7.200786658749717" fill="#aa8545" opacity="0.24"/><ellipse cx="393" cy="131" rx="3" ry="6.081544183270582" fill="#aa8545" opacity="0.12"/><line x1="400" y1="160" x2="518" y2="119" stroke="#aa8545" stroke-width="1" opacity="0.2"/><ellipse cx="520" cy="124" rx="3" ry="7.039048700629779" fill="#aa8545" opacity="0.15"/><ellipse cx="520" cy="136" rx="3" ry="4.653565725920317" fill="#aa8545" opacity="0.12"/><ellipse cx="516" cy="148" rx="3" ry="7.4034846326368715" fill="#aa8545" opacity="0.19"/><line x1="400" y1="160" x2="484" y2="189" stroke="#aa8545" stroke-width="1" opacity="0.2"/><ellipse cx="474" cy="194" rx="3" ry="4.289738524975012" fill="#aa8545" opacity="0.16"/><ellipse cx="487" cy="206" rx="3" ry="5.505108234942991" fill="#aa8545" opacity="0.11"/><ellipse cx="493" cy="218" rx="3" ry="5.188299811620545" fill="#aa8545" opacity="0.24"/><line x1="400" y1="160" x2="400" y2="222" stroke="#aa8545" stroke-width="1" opacity="0.2"/><ellipse cx="401" cy="227" rx="3" ry="4.547836635771986" fill="#aa8545" opacity="0.23"/><ellipse cx="403" cy="239" rx="3" ry="7.6359616235233485" fill="#aa8545" opacity="0.16"/><ellipse cx="395" cy="251" rx="3" ry="6.110429443521825" fill="#aa8545" opacity="0.17"/><line x1="400" y1="160" x2="294" y2="197" stroke="#aa8545" stroke-width="1" opacity="0.2"/><ellipse cx="284" cy="202" rx="3" ry="4.919942579157597" fill="#aa8545" opacity="0.16"/><ellipse cx="292" cy="214" rx="3" ry="7.553190819502985" fill="#aa8545" opacity="0.19"/><ellipse cx="292" cy="226" rx="3" ry="6.987061236972977" fill="#aa8545" opacity="0.23"/><line x1="400" y1="160" x2="294" y2="123" stroke="#aa8545" stroke-width="1" opacity="0.2"/><ellipse cx="299" cy="128" rx="3" ry="5.878753928354712" fill="#aa8545" opacity="0.11"/><ellipse cx="284" cy="140" rx="3" ry="4.596635237891818" fill="#aa8545" opacity="0.24"/><ellipse cx="303" cy="152" rx="3" ry="6.891132374192711" fill="#aa8545" opacity="0.22"/><ellipse cx="400" cy="520" rx="300" ry="30" fill="#70503d" opacity="0.08"/><ellipse cx="400" cy="510" rx="280" ry="6" fill="#aa8545" opacity="0.06"/><path d="M214.3790529615982,494.3716630473469 L206.3790529615982,464.3716630473469 Q214.3790529615982,449.3716630473469 222.3790529615982,464.3716630473469 Z" fill="none" stroke="#aa8545" stroke-width="0.8" opacity="0.15"/><line x1="214.3790529615982" y1="494.3716630473469" x2="214.3790529615982" y2="509.3716630473469" stroke="#aa8545" stroke-width="0.5" opacity="0.12"/><line x1="206.3790529615982" y1="509.3716630473469" x2="222.3790529615982" y2="509.3716630473469" stroke="#aa8545" stroke-width="0.5" opacity="0.12"/><path d="M309.0817616033198,498.5837544860167 L301.0817616033198,468.5837544860167 Q309.0817616033198,453.5837544860167 317.0817616033198,468.5837544860167 Z" fill="none" stroke="#aa8545" stroke-width="0.8" opacity="0.15"/><line x1="309.0817616033198" y1="498.5837544860167" x2="309.0817616033198" y2="513.5837544860167" stroke="#aa8545" stroke-width="0.5" opacity="0.12"/><line x1="301.0817616033198" y1="513.5837544860167" x2="317.0817616033198" y2="513.5837544860167" stroke="#aa8545" stroke-width="0.5" opacity="0.12"/><path d="M434.3233151308478,495.9787242915283 L426.3233151308478,465.9787242915283 Q434.3233151308478,450.9787242915283 442.3233151308478,465.9787242915283 Z" fill="none" stroke="#aa8545" stroke-width="0.8" opacity="0.15"/><line x1="434.3233151308478" y1="495.9787242915283" x2="434.3233151308478" y2="510.9787242915283" stroke="#aa8545" stroke-width="0.5" opacity="0.12"/><line x1="426.3233151308478" y1="510.9787242915283" x2="442.3233151308478" y2="510.9787242915283" stroke="#aa8545" stroke-width="0.5" opacity="0.12"/><path d="M528.8383983716726,483.48076002065164 L520.8383983716726,453.48076002065164 Q528.8383983716726,438.48076002065164 536.8383983716726,453.48076002065164 Z" fill="none" stroke="#aa8545" stroke-width="0.8" opacity="0.15"/><line x1="528.8383983716726" y1="483.48076002065164" x2="528.8383983716726" y2="498.48076002065164" stroke="#aa8545" stroke-width="0.5" opacity="0.12"/><line x1="520.8383983716726" y1="498.48076002065164" x2="536.8383983716726" y2="498.48076002065164" stroke="#aa8545" stroke-width="0.5" opacity="0.12"/><path d="M602.2675927377004,495.7157189172839 L594.2675927377004,465.7157189172839 Q602.2675927377004,450.7157189172839 610.2675927377004,465.7157189172839 Z" fill="none" stroke="#aa8545" stroke-width="0.8" opacity="0.15"/><line x1="602.2675927377004" y1="495.7157189172839" x2="602.2675927377004" y2="510.7157189172839" stroke="#aa8545" stroke-width="0.5" opacity="0.12"/><line x1="594.2675927377004" y1="510.7157189172839" x2="610.2675927377004" y2="510.7157189172839" stroke="#aa8545" stroke-width="0.5" opacity="0.12"/></svg>