<svg xmlns="http://www.w3.org/2000/svg" viewBox="0 0 800 600" width="800" height="600"><defs>
    <linearGradient id="bg-p-0" x1="0" y1="0" x2="0" y2="1">
      <stop offset="0%" stop-color="#faf8f4"/>
      <stop offset="100%" stop-color="#e7ded3"/>
    </linearGradient>
  </defs>
  <rect width="800" height="600" fill="url(#bg-p-0)"/><rect x="70" y="121.70207876870602" width="200" height="3" fill="#1f0a02" opacity="0.15" rx="1"/><rect x="70" y="141.70207876870603" width="138" height="4" fill="#70503d" opacity="0.11" rx="2"/><rect x="70" y="157.70207876870603" width="172" height="4" fill="#70503d" opacity="0.10" rx="2"/><rect x="70" y="173.70207876870603" width="183" height="4" fill="#70503d" opacity="0.14" rx="2"/><rect x="70" y="189.70207876870603" width="147" height="4" fill="#70503d" opacity="0.13" rx="2"/><rect x="70" y="205.70207876870603" width="128" height="4" fill="#70503d" opacity="0.07" rx="2"/><rect x="70" y="221.70207876870603" width="197" height="4" fill="#70503d" opacity="0.14" rx="2"/><rect x="70" y="237.70207876870603" width="174" height="4" fill="#70503d" opacity="0.14" rx="2"/><rect x="70" y="253.70207876870603" width="123" height="4" fill="#70503d" opacity="0.13" rx="2"/><rect x="70" y="269.70207876870603" width="170" height="4" fill="#70503d" opacity="0.09" rx="2"/><rect x="300" y="154.8497250814454" width="200" height="3" fill="#1f0a02" opacity="0.15" rx="1"/><rect x="300" y="174.8497250814454" width="141" height="4" fill="#70503d" opacity="0.12" rx="2"/><rect x="300" y="190.8497250814454" width="169" height="4" fill="#70503d" opacity="0.13" rx="2"/><rect x="300" y="206.8497250814454" width="121" height="4" fill="#70503d" opacity="0.09" rx="2"/><rect x="300" y="222.8497250814454" width="183" height="4" fill="#70503d" opacity="0.09" rx="2"/><rect x="300" y="238.8497250814454" width="153" height="4" fill="#70503d" opacity="0.07" rx="2"/><rect x="300" y="254.8497250814454" width="197" height="4" fill="#70503d" opacity="0.07" rx="2"/><rect x="300" y="270.8497250814454" width="126" height="4" fill="#70503d" opacity="0.11" rx="2"/><rect x="300" y="286.8497250814454" width="172" height="4" fill="#70503d" opacity="0.11" rx="2"/><rect x="300" y="302.8497250814454" width="142" height="4" fill="#70503d" opacity="0.09" rx="2"/><rect x="300" y="318.8497250814454" width="132" height="4" fill="#70503d" opacity="0.07" rx="2"/><rect x="300" y="334.8497250814454" width="128" height="4" fill="#70503d" opacity="0.14" rx="2"/><rect x="300" y="350.8497250814454" width="145" height="4" fill="#70503d" opacity="0.08" rx="2"/><rect x="300" y="366.8497250814454" width="136" height="4" fill="#70503d" opacity="0.07" rx="2"/><rect x="530" y="148.96357186973427" width="200" height="3" fill="#1f0a02" opacity="0.15" rx="1"/><rect x="530" y="168.96357186973427" width="155" height="4" fill="#70503d" opacity="0.09" rx="2"/><rect x="530" y="184.96357186973427" width="182" height="4" fill="#70503d" opacity="0.11" rx="2"/><rect x="530" y="200.96357186973427" width="146" height="4" fill="#70503d" opacity="0.08" rx="2"/><rect x="530" y="216.96357186973427" width="136" height="4" fill="#70503d" opacity="0.10" rx="2"/><rect x="530" y="232.96357186973427" width="149" height="4" fill="#70503d" opacity="0.08" rx="2"/><rect x="530" y="248.96357186973427" width="168" height="4" fill="#70503d" opacity="0.07" rx="2"/><rect x="530" y="264.96357186973427" width="126" height="4" fill="#70503d" opacity="0.11" rx="2"/><rect x="530" y="280.96357186973427" width="150" height="4" fill="#70503d" opacity="0.12" rx="2"/><rect x="530" y="296.96357186973427" width="122" height="4" fill="#70503d" opacity="0.09" rx="2"/><rect x="530" y="312.96357186973427" width="200" height="4" fill="#70503d" opacity="0.14" rx="2"/><rect x="530" y="328.96357186973427" width="148" height="4" fill="#70503d" opacity="0.11" rx="2"/><rect x="530" y="344.96357186973427" width="159" height="4" fill="#70503d" opacity="0.09" rx="2"/><rect x="80" y="50" width="447.3159034245796" height="8" fill="#1f0a02" opacity="0.12" rx="3"/><rect x="80" y="70" width="278.79253884664973" height="5" fill="#70503d" opacity="0.08" rx="2"/><rect x="70" y="225" width="200" height="101" fill="#aa8545" opacity="0.08" rx="2"/><rect x="78" y="233" width="184" height="90" fill="none" stroke="#aa8545" stroke-width="0.5" opacity="0.15" rx="1"/><line x1="80" y1="96" x2="720" y2="96" stroke="#70503d" stroke-width="0.5" opacity="0.15"/></svg>