<svg xmlns="http://www.w3.org/2000/svg" viewBox="0 0 800 600" width="800" height="600"><defs>
    <linearGradient id="bg-p-6" x1="0" y1="0" x2="0" y2="1">
      <stop offset="0%" stop-color="#faf8f4"/>
      <stop offset="100%" stop-color="#e7ded3"/>
    </linearGradient>
  </defs>
  <rect width="800" height="600" fill="url(#bg-p-6)"/><rect x="70" y="131.91455149270087" width="200" height="3" fill="#1f0a02" opacity="0.15" rx="1"/><rect x="70" y="151.91455149270087" width="167" height="4" fill="#70503d" opacity="0.12" rx="2"/><rect x="70" y="167.91455149270087" width="167" height="4" fill="#70503d" opacity="0.09" rx="2"/><rect x="70" y="183.91455149270087" width="158" height="4" fill="#70503d" opacity="0.13" rx="2"/><rect x="70" y="199.91455149270087" width="147" height="4" fill="#70503d" opacity="0.10" rx="2"/><rect x="70" y="215.91455149270087" width="176" height="4" fill="#70503d" opacity="0.10" rx="2"/><rect x="70" y="231.91455149270087" width="177" height="4" fill="#70503d" opacity="0.12" rx="2"/><rect x="70" y="247.91455149270087" width="176" height="4" fill="#70503d" opacity="0.13" rx="2"/><rect x="70" y="263.91455149270087" width="142" height="4" fill="#70503d" opacity="0.14" rx="2"/><rect x="70" y="279.91455149270087" width="153" height="4" fill="#70503d" opacity="0.14" rx="2"/><rect x="300" y="123.94807557011775" width="200" height="3" fill="#1f0a02" opacity="0.15" rx="1"/><rect x="300" y="143.94807557011774" width="189" height="4" fill="#70503d" opacity="0.10" rx="2"/><rect x="300" y="159.94807557011774" width="141" height="4" fill="#70503d" opacity="0.09" rx="2"/><rect x="300" y="175.94807557011774" width="127" height="4" fill="#70503d" opacity="0.10" rx="2"/><rect x="300" y="191.94807557011774" width="162" height="4" fill="#70503d" opacity="0.11" rx="2"/><rect x="300" y="207.94807557011774" width="192" height="4" fill="#70503d" opacity="0.10" rx="2"/><rect x="300" y="223.94807557011774" width="176" height="4" fill="#70503d" opacity="0.10" rx="2"/><rect x="300" y="239.94807557011774" width="163" height="4" fill="#70503d" opacity="0.08" rx="2"/><rect x="300" y="255.94807557011774" width="167" height="4" fill="#70503d" opacity="0.08" rx="2"/><rect x="300" y="271.94807557011774" width="191" height="4" fill="#70503d" opacity="0.09" rx="2"/><rect x="300" y="287.94807557011774" width="124" height="4" fill="#70503d" opacity="0.13" rx="2"/><rect x="300" y="303.94807557011774" width="179" height="4" fill="#70503d" opacity="0.14" rx="2"/><rect x="300" y="319.94807557011774" width="132" height="4" fill="#70503d" opacity="0.09" rx="2"/><rect x="300" y="335.94807557011774" width="151" height="4" fill="#70503d" opacity="0.07" rx="2"/><rect x="530" y="122.74500310676639" width="200" height="3" fill="#1f0a02" opacity="0.15" rx="1"/><rect x="530" y="142.74500310676638" width="122" height="4" fill="#70503d" opacity="0.14" rx="2"/><rect x="530" y="158.74500310676638" width="157" height="4" fill="#70503d" opacity="0.11" rx="2"/><rect x="530" y="174.74500310676638" width="141" height="4" fill="#70503d" opacity="0.07" rx="2"/><rect x="530" y="190.74500310676638" width="149" height="4" fill="#70503d" opacity="0.13" rx="2"/><rect x="530" y="206.74500310676638" width="164" height="4" fill="#70503d" opacity="0.06" rx="2"/><rect x="530" y="222.74500310676638" width="135" height="4" fill="#70503d" opacity="0.11" rx="2"/><rect x="530" y="238.74500310676638" width="164" height="4" fill="#70503d" opacity="0.07" rx="2"/><rect x="530" y="254.74500310676638" width="169" height="4" fill="#70503d" opacity="0.08" rx="2"/><rect x="530" y="270.7450031067664" width="136" height="4" fill="#70503d" opacity="0.08" rx="2"/><rect x="530" y="286.7450031067664" width="197" height="4" fill="#70503d" opacity="0.13" rx="2"/><rect x="80" y="50" width="482.2641281245874" height="8" fill="#1f0a02" opacity="0.12" rx="3"/><rect x="80" y="70" width="259.9017334728518" height="5" fill="#70503d" opacity="0.08" rx="2"/><rect x="300" y="278" width="200" height="119" fill="#aa8545" opacity="0.08" rx="2"/><rect x="308" y="286" width="184" height="79" fill="none" stroke="#aa8545" stroke-width="0.5" opacity="0.15" rx="1"/><line x1="80" y1="96" x2="720" y2="96" stroke="#70503d" stroke-width="0.5" opacity="0.15"/></svg>