<svg xmlns="http://www.w3.org/2000/svg" viewBox="0 0 800 600" width="800" height="600"><defs>
    <linearGradient id="bg-p-5" x1="0" y1="0" x2="0" y2="1">
      <stop offset="0%" stop-color="#faf8f4"/>
      <stop offset="100%" stop-color="#e7ded3"/>
    </linearGradient>
  </defs>
  <rect width="800" height="600" fill="url(#bg-p-5)"/><rect x="70" y="130.21247270536838" width="200" height="3" fill="#1f0a02" opacity="0.15" rx="1"/><rect x="70" y="150.21247270536838" width="149" height="4" fill="#70503d" opacity="0.07" rx="2"/><rect x="70" y="166.21247270536838" width="195" height="4" fill="#70503d" opacity="0.13" rx="2"/><rect x="70" y="182.21247270536838" width="175" height="4" fill="#70503d" opacity="0.13" rx="2"/><rect x="70" y="198.21247270536838" width="121" height="4" fill="#70503d" opacity="0.10" rx="2"/><rect x="70" y="214.21247270536838" width="168" height="4" fill="#70503d" opacity="0.09" rx="2"/><rect x="70" y="230.21247270536838" width="180" height="4" fill="#70503d" opacity="0.12" rx="2"/><rect x="70" y="246.21247270536838" width="122" height="4" fill="#70503d" opacity="0.13" rx="2"/><rect x="70" y="262.2124727053684" width="139" height="4" fill="#70503d" opacity="0.07" rx="2"/><rect x="300" y="151.41435704325733" width="200" height="3" fill="#1f0a02" opacity="0.15" rx="1"/><rect x="300" y="171.41435704325733" width="138" height="4" fill="#70503d" opacity="0.13" rx="2"/><rect x="300" y="187.41435704325733" width="168" height="4" fill="#70503d" opacity="0.12" rx="2"/><rect x="300" y="203.41435704325733" width="173" height="4" fill="#70503d" opacity="0.10" rx="2"/><rect x="300" y="219.41435704325733" width="126" height="4" fill="#70503d" opacity="0.07" rx="2"/><rect x="300" y="235.41435704325733" width="178" height="4" fill="#70503d" opacity="0.08" rx="2"/><rect x="300" y="251.41435704325733" width="159" height="4" fill="#70503d" opacity="0.09" rx="2"/><rect x="300" y="267.4143570432573" width="179" height="4" fill="#70503d" opacity="0.09" rx="2"/><rect x="300" y="283.4143570432573" width="157" height="4" fill="#70503d" opacity="0.11" rx="2"/><rect x="300" y="299.4143570432573" width="195" height="4" fill="#70503d" opacity="0.11" rx="2"/><rect x="300" y="315.4143570432573" width="170" height="4" fill="#70503d" opacity="0.07" rx="2"/><rect x="300" y="331.4143570432573" width="192" height="4" fill="#70503d" opacity="0.12" rx="2"/><rect x="530" y="145.1037640172092" width="200" height="3" fill="#1f0a02" opacity="0.15" rx="1"/><rect x="530" y="165.1037640172092" width="187" height="4" fill="#70503d" opacity="0.07" rx="2"/><rect x="530" y="181.1037640172092" width="135" height="4" fill="#70503d" opacity="0.13" rx="2"/><rect x="530" y="197.1037640172092" width="148" height="4" fill="#70503d" opacity="0.11" rx="2"/><rect x="530" y="213.1037640172092" width="167" height="4" fill="#70503d" opacity="0.11" rx="2"/><rect x="530" y="229.1037640172092" width="174" height="4" fill="#70503d" opacity="0.06" rx="2"/><rect x="530" y="245.1037640172092" width="195" height="4" fill="#70503d" opacity="0.12" rx="2"/><rect x="530" y="261.1037640172092" width="134" height="4" fill="#70503d" opacity="0.09" rx="2"/><rect x="530" y="277.1037640172092" width="135" height="4" fill="#70503d" opacity="0.12" rx="2"/><rect x="530" y="293.1037640172092" width="167" height="4" fill="#70503d" opacity="0.10" rx="2"/><rect x="530" y="309.1037640172092" width="158" height="4" fill="#70503d" opacity="0.10" rx="2"/><rect x="530" y="325.1037640172092" width="139" height="4" fill="#70503d" opacity="0.10" rx="2"/><rect x="530" y="341.1037640172092" width="133" height="4" fill="#70503d" opacity="0.13" rx="2"/><rect x="530" y="357.1037640172092" width="197" height="4" fill="#70503d" opacity="0.13" rx="2"/><rect x="80" y="50" width="413.3692526383039" height="8" fill="#1f0a02" opacity="0.12" rx="3"/><rect x="80" y="70" width="322.7729144252585" height="5" fill="#70503d" opacity="0.08" rx="2"/><rect x="530" y="244" width="200" height="105" fill="#aa8545" opacity="0.08" rx="2"/><rect x="538" y="252" width="184" height="71" fill="none" stroke="#aa8545" stroke-width="0.5" opacity="0.15" rx="1"/><line x1="80" y1="96" x2="720" y2="96" stroke="#70503d" stroke-width="0.5" opacity="0.15"/></svg>