<svg xmlns="http://www.w3.org/2000/svg" viewBox="0 0 800 600" width="800" height="600"><defs>
    <linearGradient id="bg-p-4" x1="0" y1="0" x2="0" y2="1">
      <stop offset="0%" stop-color="#faf8f4"/>
      <stop offset="100%" stop-color="#e7ded3"/>
    </linearGradient>
  </defs>
  <rect width="800" height="600" fill="url(#bg-p-4)"/><rect x="70" y="128.51039391803593" width="200" height="3" fill="#1f0a02" opacity="0.15" rx="1"/><rect x="70" y="148.51039391803593" width="130" height="4" fill="#70503d" opacity="0.09" rx="2"/><rect x="70" y="164.51039391803593" width="142" height="4" fill="#70503d" opacity="0.09" rx="2"/><rect x="70" y="180.51039391803593" width="193" height="4" fill="#70503d" opacity="0.13" rx="2"/><rect x="70" y="196.51039391803593" width="174" height="4" fill="#70503d" opacity="0.11" rx="2"/><rect x="70" y="212.51039391803593" width="160" height="4" fill="#70503d" opacity="0.09" rx="2"/><rect x="70" y="228.51039391803593" width="183" height="4" fill="#70503d" opacity="0.13" rx="2"/><rect x="70" y="244.51039391803593" width="148" height="4" fill="#70503d" opacity="0.13" rx="2"/><rect x="70" y="260.5103939180359" width="136" height="4" fill="#70503d" opacity="0.08" rx="2"/><rect x="70" y="276.5103939180359" width="132" height="4" fill="#70503d" opacity="0.07" rx="2"/><rect x="70" y="292.5103939180359" width="148" height="4" fill="#70503d" opacity="0.13" rx="2"/><rect x="70" y="308.5103939180359" width="146" height="4" fill="#70503d" opacity="0.13" rx="2"/><rect x="70" y="324.5103939180359" width="124" height="4" fill="#70503d" opacity="0.10" rx="2"/><rect x="70" y="340.5103939180359" width="125" height="4" fill="#70503d" opacity="0.12" rx="2"/><rect x="300" y="157.7006397561176" width="200" height="3" fill="#1f0a02" opacity="0.15" rx="1"/><rect x="300" y="177.7006397561176" width="126" height="4" fill="#70503d" opacity="0.09" rx="2"/><rect x="300" y="193.7006397561176" width="183" height="4" fill="#70503d" opacity="0.09" rx="2"/><rect x="300" y="209.7006397561176" width="151" height="4" fill="#70503d" opacity="0.06" rx="2"/><rect x="300" y="225.7006397561176" width="142" height="4" fill="#70503d" opacity="0.06" rx="2"/><rect x="300" y="241.7006397561176" width="148" height="4" fill="#70503d" opacity="0.12" rx="2"/><rect x="300" y="257.7006397561176" width="180" height="4" fill="#70503d" opacity="0.11" rx="2"/><rect x="300" y="273.7006397561176" width="162" height="4" fill="#70503d" opacity="0.14" rx="2"/><rect x="300" y="289.7006397561176" width="163" height="4" fill="#70503d" opacity="0.14" rx="2"/><rect x="300" y="305.7006397561176" width="199" height="4" fill="#70503d" opacity="0.12" rx="2"/><rect x="300" y="321.7006397561176" width="170" height="4" fill="#70503d" opacity="0.13" rx="2"/><rect x="300" y="337.7006397561176" width="133" height="4" fill="#70503d" opacity="0.07" rx="2"/><rect x="300" y="353.7006397561176" width="192" height="4" fill="#70503d" opacity="0.09" rx="2"/><rect x="300" y="369.7006397561176" width="169" height="4" fill="#70503d" opacity="0.10" rx="2"/><rect x="530" y="159.00228749867742" width="200" height="3" fill="#1f0a02" opacity="0.15" rx="1"/><rect x="530" y="179.00228749867742" width="186" height="4" fill="#70503d" opacity="0.10" rx="2"/><rect x="530" y="195.00228749867742" width="200" height="4" fill="#70503d" opacity="0.10" rx="2"/><rect x="530" y="211.00228749867742" width="152" height="4" fill="#70503d" opacity="0.13" rx="2"/><rect x="530" y="227.00228749867742" width="189" height="4" fill="#70503d" opacity="0.12" rx="2"/><rect x="530" y="243.00228749867742" width="131" height="4" fill="#70503d" opacity="0.11" rx="2"/><rect x="530" y="259.00228749867745" width="198" height="4" fill="#70503d" opacity="0.13" rx="2"/><rect x="530" y="275.00228749867745" width="178" height="4" fill="#70503d" opacity="0.13" rx="2"/><rect x="530" y="291.00228749867745" width="157" height="4" fill="#70503d" opacity="0.07" rx="2"/><rect x="530" y="307.00228749867745" width="135" height="4" fill="#70503d" opacity="0.14" rx="2"/><rect x="530" y="323.00228749867745" width="163" height="4" fill="#70503d" opacity="0.10" rx="2"/><rect x="530" y="339.00228749867745" width="181" height="4" fill="#70503d" opacity="0.06" rx="2"/><rect x="530" y="355.00228749867745" width="137" height="4" fill="#70503d" opacity="0.06" rx="2"/><rect x="80" y="50" width="472.69182314415633" height="8" fill="#1f0a02" opacity="0.12" rx="3"/><rect x="80" y="70" width="348.6044351231348" height="5" fill="#70503d" opacity="0.08" rx="2"/><rect x="70" y="211" width="200" height="96" fill="#aa8545" opacity="0.08" rx="2"/><rect x="78" y="219" width="184" height="78" fill="none" stroke="#aa8545" stroke-width="0.5" opacity="0.15" rx="1"/><line x1="80" y1="96" x2="720" y2="96" stroke="#70503d" stroke-width="0.5" opacity="0.15"/></svg>