<svg xmlns="http://www.w3.org/2000/svg" viewBox="0 0 800 600" width="800" height="600"><defs>
    <linearGradient id="bg-p-7" x1="0" y1="0" x2="0" y2="1">
      <stop offset="0%" stop-color="#faf8f4"/>
      <stop offset="100%" stop-color="#e7ded3"/>
    </linearGradient>
  </defs>
  <rect width="800" height="600" fill="url(#bg-p-7)"/><rect x="70" y="133.61663028003335" width="200" height="3" fill="#1f0a02" opacity="0.15" rx="1"/><rect x="70" y="153.61663028003335" width="185" height="4" fill="#70503d" opacity="0.10" rx="2"/><rect x="70" y="169.61663028003335" width="140" height="4" fill="#70503d" opacity="0.13" rx="2"/><rect x="70" y="185.61663028003335" width="140" height="4" fill="#70503d" opacity="0.13" rx="2"/><rect x="70" y="201.61663028003335" width="174" height="4" fill="#70503d" opacity="0.09" rx="2"/><rect x="70" y="217.61663028003335" width="185" height="4" fill="#70503d" opacity="0.10" rx="2"/><rect x="70" y="233.61663028003335" width="173" height="4" fill="#70503d" opacity="0.12" rx="2"/><rect x="70" y="249.61663028003335" width="149" height="4" fill="#70503d" opacity="0.13" rx="2"/><rect x="70" y="265.61663028003335" width="145" height="4" fill="#70503d" opacity="0.13" rx="2"/><rect x="70" y="281.61663028003335" width="124" height="4" fill="#70503d" opacity="0.09" rx="2"/><rect x="70" y="297.61663028003335" width="198" height="4" fill="#70503d" opacity="0.13" rx="2"/><rect x="300" y="125.12230800941802" width="200" height="3" fill="#1f0a02" opacity="0.15" rx="1"/><rect x="300" y="145.12230800941802" width="190" height="4" fill="#70503d" opacity="0.08" rx="2"/><rect x="300" y="161.12230800941802" width="128" height="4" fill="#70503d" opacity="0.13" rx="2"/><rect x="300" y="177.12230800941802" width="145" height="4" fill="#70503d" opacity="0.14" rx="2"/><rect x="300" y="193.12230800941802" width="145" height="4" fill="#70503d" opacity="0.11" rx="2"/><rect x="300" y="209.12230800941802" width="172" height="4" fill="#70503d" opacity="0.10" rx="2"/><rect x="300" y="225.12230800941802" width="169" height="4" fill="#70503d" opacity="0.13" rx="2"/><rect x="300" y="241.12230800941802" width="140" height="4" fill="#70503d" opacity="0.13" rx="2"/><rect x="300" y="257.122308009418" width="133" height="4" fill="#70503d" opacity="0.12" rx="2"/><rect x="300" y="273.122308009418" width="136" height="4" fill="#70503d" opacity="0.06" rx="2"/><rect x="530" y="153.47168536248773" width="200" height="3" fill="#1f0a02" opacity="0.15" rx="1"/><rect x="530" y="173.47168536248773" width="156" height="4" fill="#70503d" opacity="0.10" rx="2"/><rect x="530" y="189.47168536248773" width="167" height="4" fill="#70503d" opacity="0.08" rx="2"/><rect x="530" y="205.47168536248773" width="183" height="4" fill="#70503d" opacity="0.07" rx="2"/><rect x="530" y="221.47168536248773" width="157" height="4" fill="#70503d" opacity="0.09" rx="2"/><rect x="530" y="237.47168536248773" width="139" height="4" fill="#70503d" opacity="0.09" rx="2"/><rect x="530" y="253.47168536248773" width="167" height="4" fill="#70503d" opacity="0.09" rx="2"/><rect x="530" y="269.47168536248773" width="165" height="4" fill="#70503d" opacity="0.10" rx="2"/><rect x="530" y="285.47168536248773" width="193" height="4" fill="#70503d" opacity="0.08" rx="2"/><rect x="530" y="301.47168536248773" width="183" height="4" fill="#70503d" opacity="0.12" rx="2"/><rect x="530" y="317.47168536248773" width="171" height="4" fill="#70503d" opacity="0.11" rx="2"/><rect x="530" y="333.47168536248773" width="199" height="4" fill="#70503d" opacity="0.06" rx="2"/><rect x="530" y="349.47168536248773" width="138" height="4" fill="#70503d" opacity="0.10" rx="2"/><rect x="530" y="365.47168536248773" width="196" height="4" fill="#70503d" opacity="0.12" rx="2"/><rect x="80" y="50" width="551.1590036108707" height="8" fill="#1f0a02" opacity="0.12" rx="3"/><rect x="80" y="70" width="347.03055259029435" height="5" fill="#70503d" opacity="0.08" rx="2"/><rect x="530" y="232" width="200" height="134" fill="#aa8545" opacity="0.08" rx="2"/><rect x="538" y="240" width="184" height="88" fill="none" stroke="#aa8545" stroke-width="0.5" opacity="0.15" rx="1"/><line x1="80" y1="96" x2="720" y2="96" stroke="#70503d" stroke-width="0.5" opacity="0.15"/></svg>