<svg xmlns="http://www.w3.org/2000/svg" viewBox="0 0 800 600" width="800" height="600"><defs>
    <linearGradient id="bg-p-2" x1="0" y1="0" x2="0" y2="1">
      <stop offset="0%" stop-color="#faf8f4"/>
      <stop offset="100%" stop-color="#e7ded3"/>
    </linearGradient>
  </defs>
  <rect width="800" height="600" fill="url(#bg-p-2)"/><rect x="70" y="125.10623634337097" width="200" height="3" fill="#1f0a02" opacity="0.15" rx="1"/><rect x="70" y="145.10623634337097" width="174" height="4" fill="#70503d" opacity="0.06" rx="2"/><rect x="70" y="161.10623634337097" width="197" height="4" fill="#70503d" opacity="0.10" rx="2"/><rect x="70" y="177.10623634337097" width="148" height="4" fill="#70503d" opacity="0.14" rx="2"/><rect x="70" y="193.10623634337097" width="120" height="4" fill="#70503d" opacity="0.12" rx="2"/><rect x="70" y="209.10623634337097" width="144" height="4" fill="#70503d" opacity="0.08" rx="2"/><rect x="70" y="225.10623634337097" width="190" height="4" fill="#70503d" opacity="0.13" rx="2"/><rect x="70" y="241.10623634337097" width="121" height="4" fill="#70503d" opacity="0.14" rx="2"/><rect x="70" y="257.10623634337094" width="129" height="4" fill="#70503d" opacity="0.11" rx="2"/><rect x="70" y="273.10623634337094" width="191" height="4" fill="#70503d" opacity="0.08" rx="2"/><rect x="70" y="289.10623634337094" width="169" height="4" fill="#70503d" opacity="0.14" rx="2"/><rect x="70" y="305.10623634337094" width="184" height="4" fill="#70503d" opacity="0.09" rx="2"/><rect x="300" y="153.12604341015782" width="200" height="3" fill="#1f0a02" opacity="0.15" rx="1"/><rect x="300" y="173.12604341015782" width="123" height="4" fill="#70503d" opacity="0.07" rx="2"/><rect x="300" y="189.12604341015782" width="149" height="4" fill="#70503d" opacity="0.07" rx="2"/><rect x="300" y="205.12604341015782" width="139" height="4" fill="#70503d" opacity="0.08" rx="2"/><rect x="300" y="221.12604341015782" width="190" height="4" fill="#70503d" opacity="0.08" rx="2"/><rect x="300" y="237.12604341015782" width="139" height="4" fill="#70503d" opacity="0.13" rx="2"/><rect x="300" y="253.12604341015782" width="197" height="4" fill="#70503d" opacity="0.12" rx="2"/><rect x="300" y="269.1260434101578" width="185" height="4" fill="#70503d" opacity="0.06" rx="2"/><rect x="300" y="285.1260434101578" width="156" height="4" fill="#70503d" opacity="0.09" rx="2"/><rect x="300" y="301.1260434101578" width="145" height="4" fill="#70503d" opacity="0.14" rx="2"/><rect x="300" y="317.1260434101578" width="194" height="4" fill="#70503d" opacity="0.11" rx="2"/><rect x="300" y="333.1260434101578" width="168" height="4" fill="#70503d" opacity="0.10" rx="2"/><rect x="300" y="349.1260434101578" width="134" height="4" fill="#70503d" opacity="0.08" rx="2"/><rect x="530" y="131.85287752361305" width="200" height="3" fill="#1f0a02" opacity="0.15" rx="1"/><rect x="530" y="151.85287752361305" width="147" height="4" fill="#70503d" opacity="0.06" rx="2"/><rect x="530" y="167.85287752361305" width="198" height="4" fill="#70503d" opacity="0.13" rx="2"/><rect x="530" y="183.85287752361305" width="167" height="4" fill="#70503d" opacity="0.11" rx="2"/><rect x="530" y="199.85287752361305" width="127" height="4" fill="#70503d" opacity="0.13" rx="2"/><rect x="530" y="215.85287752361305" width="184" height="4" fill="#70503d" opacity="0.08" rx="2"/><rect x="530" y="231.85287752361305" width="139" height="4" fill="#70503d" opacity="0.12" rx="2"/><rect x="530" y="247.85287752361305" width="130" height="4" fill="#70503d" opacity="0.08" rx="2"/><rect x="530" y="263.8528775236131" width="127" height="4" fill="#70503d" opacity="0.14" rx="2"/><rect x="530" y="279.8528775236131" width="199" height="4" fill="#70503d" opacity="0.13" rx="2"/><rect x="80" y="50" width="406.68462627258583" height="8" fill="#1f0a02" opacity="0.12" rx="3"/><rect x="80" y="70" width="361.38645721262924" height="5" fill="#70503d" opacity="0.08" rx="2"/><rect x="300" y="222" width="200" height="123" fill="#aa8545" opacity="0.08" rx="2"/><rect x="308" y="230" width="184" height="89" fill="none" stroke="#aa8545" stroke-width="0.5" opacity="0.15" rx="1"/><line x1="80" y1="96" x2="720" y2="96" stroke="#70503d" stroke-width="0.5" opacity="0.15"/></svg>