<svg xmlns="http://www.w3.org/2000/svg" viewBox="0 0 800 600" width="800" height="600"><defs>
    <linearGradient id="bg-p-1" x1="0" y1="0" x2="0" y2="1">
      <stop offset="0%" stop-color="#faf8f4"/>
      <stop offset="100%" stop-color="#e7ded3"/>
    </linearGradient>
  </defs>
  <rect width="800" height="600" fill="url(#bg-p-1)"/><rect x="70" y="123.4041575560385" width="200" height="3" fill="#1f0a02" opacity="0.15" rx="1"/><rect x="70" y="143.4041575560385" width="156" height="4" fill="#70503d" opacity="0.09" rx="2"/><rect x="70" y="159.4041575560385" width="145" height="4" fill="#70503d" opacity="0.14" rx="2"/><rect x="70" y="175.4041575560385" width="165" height="4" fill="#70503d" opacity="0.14" rx="2"/><rect x="70" y="191.4041575560385" width="174" height="4" fill="#70503d" opacity="0.13" rx="2"/><rect x="70" y="207.4041575560385" width="136" height="4" fill="#70503d" opacity="0.07" rx="2"/><rect x="70" y="223.4041575560385" width="193" height="4" fill="#70503d" opacity="0.13" rx="2"/><rect x="70" y="239.4041575560385" width="147" height="4" fill="#70503d" opacity="0.14" rx="2"/><rect x="70" y="255.4041575560385" width="126" height="4" fill="#70503d" opacity="0.12" rx="2"/><rect x="70" y="271.4041575560385" width="141" height="4" fill="#70503d" opacity="0.13" rx="2"/><rect x="70" y="287.4041575560385" width="179" height="4" fill="#70503d" opacity="0.14" rx="2"/><rect x="300" y="141.2805769976979" width="200" height="3" fill="#1f0a02" opacity="0.15" rx="1"/><rect x="300" y="161.2805769976979" width="138" height="4" fill="#70503d" opacity="0.13" rx="2"/><rect x="300" y="177.2805769976979" width="122" height="4" fill="#70503d" opacity="0.12" rx="2"/><rect x="300" y="193.2805769976979" width="166" height="4" fill="#70503d" opacity="0.12" rx="2"/><rect x="300" y="209.2805769976979" width="186" height="4" fill="#70503d" opacity="0.07" rx="2"/><rect x="300" y="225.2805769976979" width="193" height="4" fill="#70503d" opacity="0.07" rx="2"/><rect x="300" y="241.2805769976979" width="132" height="4" fill="#70503d" opacity="0.08" rx="2"/><rect x="300" y="257.2805769976979" width="145" height="4" fill="#70503d" opacity="0.08" rx="2"/><rect x="300" y="273.2805769976979" width="163" height="4" fill="#70503d" opacity="0.12" rx="2"/><rect x="300" y="289.2805769976979" width="144" height="4" fill="#70503d" opacity="0.08" rx="2"/><rect x="300" y="305.2805769976979" width="137" height="4" fill="#70503d" opacity="0.14" rx="2"/><rect x="300" y="321.2805769976979" width="169" height="4" fill="#70503d" opacity="0.09" rx="2"/><rect x="530" y="135.83698533087687" width="200" height="3" fill="#1f0a02" opacity="0.15" rx="1"/><rect x="530" y="155.83698533087687" width="156" height="4" fill="#70503d" opacity="0.10" rx="2"/><rect x="530" y="171.83698533087687" width="189" height="4" fill="#70503d" opacity="0.13" rx="2"/><rect x="530" y="187.83698533087687" width="165" height="4" fill="#70503d" opacity="0.09" rx="2"/><rect x="530" y="203.83698533087687" width="172" height="4" fill="#70503d" opacity="0.11" rx="2"/><rect x="530" y="219.83698533087687" width="151" height="4" fill="#70503d" opacity="0.07" rx="2"/><rect x="530" y="235.83698533087687" width="178" height="4" fill="#70503d" opacity="0.11" rx="2"/><rect x="530" y="251.83698533087687" width="136" height="4" fill="#70503d" opacity="0.07" rx="2"/><rect x="530" y="267.83698533087687" width="133" height="4" fill="#70503d" opacity="0.07" rx="2"/><rect x="530" y="283.83698533087687" width="180" height="4" fill="#70503d" opacity="0.10" rx="2"/><rect x="80" y="50" width="411.07430822316024" height="8" fill="#1f0a02" opacity="0.12" rx="3"/><rect x="80" y="70" width="344.4248389167943" height="5" fill="#70503d" opacity="0.08" rx="2"/><rect x="530" y="276" width="200" height="121" fill="#aa8545" opacity="0.08" rx="2"/><rect x="538" y="284" width="184" height="71" fill="none" stroke="#aa8545" stroke-width="0.5" opacity="0.15" rx="1"/><line x1="80" y1="96" x2="720" y2="96" stroke="#70503d" stroke-width="0.5" opacity="0.15"/></svg>