<svg xmlns="http://www.w3.org/2000/svg" viewBox="0 0 800 600" width="800" height="600"><defs>
    <linearGradient id="bg-p-3" x1="0" y1="0" x2="0" y2="1">
      <stop offset="0%" stop-color="#faf8f4"/>
      <stop offset="100%" stop-color="#e7ded3"/>
    </linearGradient>
  </defs>
  <rect width="800" height="600" fill="url(#bg-p-3)"/><rect x="70" y="126.80831513070345" width="200" height="3" fill="#1f0a02" opacity="0.15" rx="1"/><rect x="70" y="146.80831513070345" width="192" height="4" fill="#70503d" opacity="0.12" rx="2"/><rect x="70" y="162.80831513070345" width="170" height="4" fill="#70503d" opacity="0.13" rx="2"/><rect x="70" y="178.80831513070345" width="130" height="4" fill="#70503d" opacity="0.14" rx="2"/><rect x="70" y="194.80831513070345" width="147" height="4" fill="#70503d" opacity="0.12" rx="2"/><rect x="70" y="210.80831513070345" width="152" height="4" fill="#70503d" opacity="0.08" rx="2"/><rect x="70" y="226.80831513070345" width="187" height="4" fill="#70503d" opacity="0.13" rx="2"/><rect x="70" y="242.80831513070345" width="175" height="4" fill="#70503d" opacity="0.13" rx="2"/><rect x="70" y="258.8083151307035" width="133" height="4" fill="#70503d" opacity="0.09" rx="2"/><rect x="70" y="274.8083151307035" width="162" height="4" fill="#70503d" opacity="0.11" rx="2"/><rect x="70" y="290.8083151307035" width="159" height="4" fill="#70503d" opacity="0.13" rx="2"/><rect x="70" y="306.8083151307035" width="125" height="4" fill="#70503d" opacity="0.07" rx="2"/><rect x="70" y="322.8083151307035" width="155" height="4" fill="#70503d" opacity="0.11" rx="2"/><rect x="300" y="122.0977677983211" width="200" height="3" fill="#1f0a02" opacity="0.15" rx="1"/><rect x="300" y="142.09776779832112" width="132" height="4" fill="#70503d" opacity="0.10" rx="2"/><rect x="300" y="158.09776779832112" width="173" height="4" fill="#70503d" opacity="0.08" rx="2"/><rect x="300" y="174.09776779832112" width="186" height="4" fill="#70503d" opacity="0.08" rx="2"/><rect x="300" y="190.09776779832112" width="145" height="4" fill="#70503d" opacity="0.10" rx="2"/><rect x="300" y="206.09776779832112" width="170" height="4" fill="#70503d" opacity="0.09" rx="2"/><rect x="300" y="222.09776779832112" width="126" height="4" fill="#70503d" opacity="0.09" rx="2"/><rect x="300" y="238.09776779832112" width="168" height="4" fill="#70503d" opacity="0.10" rx="2"/><rect x="300" y="254.09776779832112" width="153" height="4" fill="#70503d" opacity="0.14" rx="2"/><rect x="300" y="270.0977677983211" width="138" height="4" fill="#70503d" opacity="0.12" rx="2"/><rect x="300" y="286.0977677983211" width="183" height="4" fill="#70503d" opacity="0.11" rx="2"/><rect x="530" y="155.85428749756355" width="200" height="3" fill="#1f0a02" opacity="0.15" rx="1"/><rect x="530" y="175.85428749756355" width="178" height="4" fill="#70503d" opacity="0.12" rx="2"/><rect x="530" y="191.85428749756355" width="129" height="4" fill="#70503d" opacity="0.11" rx="2"/><rect x="530" y="207.85428749756355" width="144" height="4" fill="#70503d" opacity="0.08" rx="2"/><rect x="530" y="223.85428749756355" width="182" height="4" fill="#70503d" opacity="0.08" rx="2"/><rect x="530" y="239.85428749756355" width="157" height="4" fill="#70503d" opacity="0.07" rx="2"/><rect x="530" y="255.85428749756355" width="152" height="4" fill="#70503d" opacity="0.09" rx="2"/><rect x="530" y="271.8542874975635" width="145" height="4" fill="#70503d" opacity="0.09" rx="2"/><rect x="530" y="287.8542874975635" width="159" height="4" fill="#70503d" opacity="0.06" rx="2"/><rect x="80" y="50" width="422.1486165394528" height="8" fill="#1f0a02" opacity="0.12" rx="3"/><rect x="80" y="70" width="288.8496778335885" height="5" fill="#70503d" opacity="0.08" rx="2"/><rect x="530" y="272" width="200" height="103" fill="#aa8545" opacity="0.08" rx="2"/><rect x="538" y="280" width="184" height="78" fill="none" stroke="#aa8545" stroke-width="0.5" opacity="0.15" rx="1"/><line x1="80" y1="96" x2="720" y2="96" stroke="#70503d" stroke-width="0.5" opacity="0.15"/></svg>