<svg xmlns="http://www.w3.org/2000/svg" viewBox="0 0 800 800" width="800" height="800"><defs>
    <linearGradient id="bg-r-20" x1="0" y1="0" x2="0.5" y2="1">
      <stop offset="0%" stop-color="#e7ded3"/>
      <stop offset="100%" stop-color="#faf8f4"/>
    </linearGradient>
  </defs>
  <rect width="800" height="800" fill="url(#bg-r-20)"/><polygon points="345,679 288,539 408,465 458,591" fill="#70503d" opacity="0.29"/><polygon points="209,616 98,211 516,317" fill="#3d1f10" opacity="0.31"/><polygon points="173,192 351,175 411,316 339,488 140,440 -3,301" fill="#3d1f10" opacity="0.15"/><polygon points="454,681 348,515 571,535" fill="#e0d5c7" opacity="0.13"/><polygon points="205,486 390,619 110,676" fill="#e0d5c7" opacity="0.26"/><polygon points="288,401 414,346 562,455 497,598 365,615 266,561" fill="#e0d5c7" opacity="0.24"/><line x1="525" y1="531" x2="677" y2="567" stroke="#70503d" stroke-width="3.918593352584721" opacity="0.20"/><line x1="746" y1="3" x2="184" y2="786" stroke="#8a6a30" stroke-width="1.350190149480654" opacity="0.27"/><line x1="706" y1="5" x2="432" y2="544" stroke="#8a6a30" stroke-width="1.859682642258408" opacity="0.16"/><line x1="183" y1="191" x2="489" y2="364" stroke="#aa8545" stroke-width="1.0674879956687688" opacity="0.16"/><line x1="72" y1="738" x2="350" y2="445" stroke="#1f0a02" stroke-width="2.5898572584519695" opacity="0.14"/><line x1="728" y1="571" x2="414" y2="662" stroke="#8a6a30" stroke-width="2.1983153542488028" opacity="0.15"/><line x1="290" y1="82" x2="643" y2="607" stroke="#3d1f10" stroke-width="3.2620060446318293" opacity="0.17"/><line x1="409" y1="745" x2="535" y2="628" stroke="#3d1f10" stroke-width="3.237026763369354" opacity="0.19"/><line x1="456" y1="294" x2="123" y2="188" stroke="#aa8545" stroke-width="1.801368801669561" opacity="0.22"/><line x1="428" y1="288" x2="584" y2="782" stroke="#1f0a02" stroke-width="3.974332620365855" opacity="0.22"/><rect x="319" y="304" width="103" height="129" fill="#3d1f10" opacity="0.13" transform="rotate(5 370 368)"/><rect x="329" y="303" width="83" height="131" fill="#8a6a30" opacity="0.21" transform="rotate(-15 370 368)"/><rect x="308" y="295" width="125" height="146" fill="#e0d5c7" opacity="0.17" transform="rotate(6 370 368)"/><text x="400" y="420" text-anchor="middle" font-family="Georgia, 'Times New Roman', serif" font-size="64" fill="#1f0a02" opacity="0.12">20</text></svg>