<svg xmlns="http://www.w3.org/2000/svg" viewBox="0 0 800 800" width="800" height="800"><defs>
    <radialGradient id="bg-f-22" cx="50%" cy="50%" r="60%">
      <stop offset="0%" stop-color="#faf8f4"/>
      <stop offset="100%" stop-color="#e0d5c7"/>
    </radialGradient>
    <radialGradient id="rad-f-22" cx="50%" cy="50%" r="50%">
      <stop offset="0%" stop-color="#faf8f4" stop-opacity="0.4"/>
      <stop offset="70%" stop-color="#70503d" stop-opacity="0.08"/>
      <stop offset="100%" stop-color="#1f0a02" stop-opacity="0.15"/>
    </radialGradient>
  </defs>
  <rect width="800" height="800" fill="url(#bg-f-22)"/><circle cx="400" cy="400" r="280" fill="none" stroke="#70503d" stroke-width="1" opacity="0.2"/><circle cx="400" cy="400" r="200" fill="url(#rad-f-22)"/><circle cx="400" cy="400" r="140" fill="none" stroke="#aa8545" stroke-width="0.5" opacity="0.3"/><circle cx="400" cy="400" r="65" fill="none" stroke="#e0d5c7" stroke-width="2.475889741420643" opacity="0.05"/><circle cx="400" cy="400" r="103" fill="none" stroke="#aa8545" stroke-width="2.2305805671313594" opacity="0.08"/><circle cx="400" cy="400" r="159" fill="none" stroke="#8f7060" stroke-width="0.8776452060580675" opacity="0.07"/><circle cx="400" cy="400" r="196" fill="none" stroke="#3d1f10" stroke-width="1.9250899659703393" opacity="0.13"/><circle cx="400" cy="400" r="245" fill="none" stroke="#8f7060" stroke-width="0.8256039948441125" opacity="0.09"/><circle cx="400" cy="400" r="279" fill="none" stroke="#aa8545" stroke-width="1.0091352933171533" opacity="0.13"/><line x1="460" y1="400" x2="660" y2="400" stroke="#70503d" stroke-width="0.5" opacity="0.15"/><line x1="437" y1="447" x2="562" y2="603" stroke="#70503d" stroke-width="0.5" opacity="0.15"/><line x1="387" y1="458" x2="342" y2="653" stroke="#70503d" stroke-width="0.5" opacity="0.15"/><line x1="346" y1="426" x2="166" y2="513" stroke="#70503d" stroke-width="0.5" opacity="0.15"/><line x1="346" y1="374" x2="166" y2="287" stroke="#70503d" stroke-width="0.5" opacity="0.15"/><line x1="387" y1="342" x2="342" y2="147" stroke="#70503d" stroke-width="0.5" opacity="0.15"/><line x1="437" y1="353" x2="562" y2="197" stroke="#70503d" stroke-width="0.5" opacity="0.15"/><circle cx="380" cy="798" r="3.7" fill="#3d1f10" opacity="0.05"/><circle cx="127" cy="558" r="3.2" fill="#aa8545" opacity="0.10"/><circle cx="36" cy="197" r="4.1" fill="#70503d" opacity="0.04"/><circle cx="524" cy="282" r="6.4" fill="#8f7060" opacity="0.11"/><circle cx="447" cy="57" r="5.5" fill="#1f0a02" opacity="0.12"/><circle cx="410" cy="86" r="5.5" fill="#3d1f10" opacity="0.07"/><circle cx="692" cy="456" r="5.0" fill="#8f7060" opacity="0.09"/><circle cx="73" cy="645" r="2.1" fill="#8f7060" opacity="0.05"/><circle cx="742" cy="1" r="4.9" fill="#aa8545" opacity="0.06"/><circle cx="505" cy="245" r="2.1" fill="#e0d5c7" opacity="0.05"/><circle cx="746" cy="702" r="5.2" fill="#3d1f10" opacity="0.12"/><circle cx="277" cy="131" r="5.8" fill="#70503d" opacity="0.14"/><circle cx="769" cy="710" r="2.7" fill="#e0d5c7" opacity="0.09"/><circle cx="546" cy="144" r="4.2" fill="#70503d" opacity="0.14"/><circle cx="253" cy="410" r="3.0" fill="#1f0a02" opacity="0.05"/><circle cx="384" cy="123" r="3.9" fill="#70503d" opacity="0.14"/><circle cx="685" cy="556" r="6.9" fill="#aa8545" opacity="0.13"/><circle cx="540" cy="22" r="3.2" fill="#1f0a02" opacity="0.07"/><circle cx="346" cy="242" r="2.0" fill="#8f7060" opacity="0.14"/><circle cx="433" cy="578" r="3.5" fill="#8f7060" opacity="0.10"/><circle cx="28" cy="601" r="1.2" fill="#1f0a02" opacity="0.08"/><circle cx="559" cy="626" r="5.8" fill="#3d1f10" opacity="0.09"/><circle cx="712" cy="771" r="5.3" fill="#1f0a02" opacity="0.10"/><circle cx="561" cy="109" r="3.2" fill="#70503d" opacity="0.08"/><circle cx="726" cy="342" r="5.6" fill="#8f7060" opacity="0.13"/><circle cx="308" cy="743" r="6.6" fill="#70503d" opacity="0.05"/><circle cx="404" cy="135" r="1.4" fill="#e0d5c7" opacity="0.10"/><circle cx="141" cy="358" r="3.2" fill="#3d1f10" opacity="0.11"/><circle cx="425" cy="510" r="1.6" fill="#e0d5c7" opacity="0.08"/><circle cx="526" cy="88" r="3.2" fill="#8f7060" opacity="0.14"/><circle cx="30" cy="223" r="4.5" fill="#e0d5c7" opacity="0.11"/><circle cx="106" cy="478" r="4.7" fill="#70503d" opacity="0.09"/><circle cx="740" cy="323" r="2.9" fill="#70503d" opacity="0.07"/><circle cx="501" cy="650" r="3.1" fill="#1f0a02" opacity="0.13"/><circle cx="524" cy="19" r="4.2" fill="#e0d5c7" opacity="0.12"/><circle cx="664" cy="333" r="6.2" fill="#8f7060" opacity="0.05"/><circle cx="601" cy="626" r="5.8" fill="#aa8545" opacity="0.07"/><circle cx="548" cy="62" r="4.0" fill="#e0d5c7" opacity="0.07"/><circle cx="392" cy="207" r="2.3" fill="#aa8545" opacity="0.05"/><circle cx="509" cy="225" r="5.1" fill="#70503d" opacity="0.08"/><rect width="800" height="800" fill="url(#rad-f-22)" opacity="0.3"/><text x="400" y="420" text-anchor="middle" font-family="Georgia, 'Times New Roman', serif" font-size="64" fill="#1f0a02" opacity="0.12">22</text></svg>