<svg xmlns="http://www.w3.org/2000/svg" viewBox="0 0 800 800" width="800" height="800"><defs>
    <linearGradient id="bg-m-12" x1="0" y1="0" x2="1" y2="1">
      <stop offset="0%" stop-color="#faf8f4"/>
      <stop offset="100%" stop-color="#e7ded3"/>
    </linearGradient>
  </defs>
  <rect width="800" height="800" fill="url(#bg-m-12)"/><path d="M627,564 C100,314 745,466 574,785"
      stroke="#c9a96e" stroke-width="22.146624945240678" fill="none" opacity="0.22" stroke-linecap="round"/><path d="M408,417 C413,6 540,591 408,737"
      stroke="#e0d5c7" stroke-width="15.627942232068573" fill="none" opacity="0.20" stroke-linecap="round"/><path d="M235,722 C433,738 721,36 388,381"
      stroke="#70503d" stroke-width="19.916606957015215" fill="none" opacity="0.40" stroke-linecap="round"/><path d="M395,394 C417,558 152,43 680,163"
      stroke="#aa8545" stroke-width="20.82032963896201" fill="none" opacity="0.28" stroke-linecap="round"/><path d="M514,583 C771,138 758,193 287,628"
      stroke="#8f7060" stroke-width="4.946559785815477" fill="none" opacity="0.36" stroke-linecap="round"/><circle cx="353" cy="548" r="279" fill="#e0d5c7" opacity="0.20"/><circle cx="203" cy="452" r="158" fill="#c9a96e" opacity="0.20"/><circle cx="290" cy="18" r="224" fill="#8f7060" opacity="0.12"/><line x1="276" y1="141" x2="400" y2="230" stroke="#70503d" stroke-width="2.7" opacity="0.13" stroke-linecap="round"/><line x1="438" y1="588" x2="129" y2="401" stroke="#e0d5c7" stroke-width="6.6" opacity="0.13" stroke-linecap="round"/><line x1="126" y1="316" x2="789" y2="408" stroke="#70503d" stroke-width="5.0" opacity="0.09" stroke-linecap="round"/><line x1="502" y1="551" x2="771" y2="661" stroke="#8f7060" stroke-width="3.6" opacity="0.11" stroke-linecap="round"/><line x1="741" y1="473" x2="404" y2="213" stroke="#aa8545" stroke-width="4.3" opacity="0.07" stroke-linecap="round"/><line x1="504" y1="638" x2="252" y2="571" stroke="#c9a96e" stroke-width="6.9" opacity="0.16" stroke-linecap="round"/><line x1="595" y1="794" x2="66" y2="547" stroke="#70503d" stroke-width="8.5" opacity="0.11" stroke-linecap="round"/><line x1="460" y1="679" x2="394" y2="100" stroke="#8f7060" stroke-width="4.8" opacity="0.08" stroke-linecap="round"/><text x="400" y="420" text-anchor="middle" font-family="Georgia, 'Times New Roman', serif" font-size="64" fill="#1f0a02" opacity="0.12">12</text></svg>