<svg xmlns="http://www.w3.org/2000/svg" viewBox="0 0 800 800" width="800" height="800"><defs>
    <linearGradient id="bg-r-16" x1="0" y1="0" x2="0.5" y2="1">
      <stop offset="0%" stop-color="#e7ded3"/>
      <stop offset="100%" stop-color="#faf8f4"/>
    </linearGradient>
  </defs>
  <rect width="800" height="800" fill="url(#bg-r-16)"/><polygon points="509,521 375,618 198,629 179,441 302,323 452,344" fill="#3d1f10" opacity="0.12"/><polygon points="388,419 304,279 424,252" fill="#aa8545" opacity="0.34"/><polygon points="308,440 275,491 194,494 211,391 277,359" fill="#e0d5c7" opacity="0.34"/><polygon points="200,533 86,270 373,210 493,434" fill="#3d1f10" opacity="0.23"/><polygon points="320,589 154,548 305,446" fill="#e0d5c7" opacity="0.25"/><polygon points="633,624 246,719 306,387" fill="#70503d" opacity="0.16"/><line x1="796" y1="40" x2="100" y2="105" stroke="#8a6a30" stroke-width="1.6428197651568985" opacity="0.15"/><line x1="232" y1="143" x2="437" y2="3" stroke="#8a6a30" stroke-width="3.2193508620554123" opacity="0.28"/><line x1="435" y1="395" x2="244" y2="484" stroke="#e0d5c7" stroke-width="1.904466441277849" opacity="0.15"/><line x1="98" y1="663" x2="146" y2="312" stroke="#1f0a02" stroke-width="2.2913048740395388" opacity="0.23"/><line x1="256" y1="14" x2="378" y2="270" stroke="#3d1f10" stroke-width="3.0598288919402554" opacity="0.13"/><line x1="678" y1="339" x2="423" y2="297" stroke="#aa8545" stroke-width="3.057195401338111" opacity="0.25"/><line x1="75" y1="96" x2="232" y2="66" stroke="#3d1f10" stroke-width="2.9696375531792993" opacity="0.12"/><line x1="453" y1="643" x2="328" y2="276" stroke="#1f0a02" stroke-width="3.616346979622121" opacity="0.25"/><line x1="518" y1="157" x2="205" y2="235" stroke="#3d1f10" stroke-width="1.6210897356468157" opacity="0.24"/><line x1="441" y1="11" x2="182" y2="71" stroke="#1f0a02" stroke-width="2.7079219638443757" opacity="0.16"/><rect x="319" y="325" width="131" height="130" fill="#e0d5c7" opacity="0.17" transform="rotate(-5 385 389)"/><rect x="336" y="311" width="97" height="158" fill="#1f0a02" opacity="0.25" transform="rotate(11 385 389)"/><rect x="343" y="347" width="84" height="86" fill="#70503d" opacity="0.11" transform="rotate(4 385 389)"/><text x="400" y="420" text-anchor="middle" font-family="Georgia, 'Times New Roman', serif" font-size="64" fill="#1f0a02" opacity="0.12">16</text></svg>