<svg xmlns="http://www.w3.org/2000/svg" viewBox="0 0 800 800" width="800" height="800"><defs>
    <linearGradient id="bg-x-38" x1="0" y1="0" x2="1" y2="0.8">
      <stop offset="0%" stop-color="#faf8f4"/>
      <stop offset="50%" stop-color="#e7ded3"/>
      <stop offset="100%" stop-color="#faf8f4"/>
    </linearGradient>
  </defs>
  <rect width="800" height="800" fill="url(#bg-x-38)"/><path d="M167,338 C273,317 468,106 689,205" stroke="#70503d" stroke-width="10.395901273373422" fill="none" opacity="0.25" stroke-linecap="round"/><path d="M115,546 C344,568 579,156 759,337" stroke="#3d1f10" stroke-width="3.266751006494044" fill="none" opacity="0.19" stroke-linecap="round"/><path d="M121,284 C350,633 514,309 727,233" stroke="#c9a96e" stroke-width="10.782429346612123" fill="none" opacity="0.29" stroke-linecap="round"/><rect x="570" y="436" width="103" height="172" fill="#c9a96e" opacity="0.19" rx="2" transform="rotate(-12 622 522)"/><rect x="550" y="475" width="128" height="198" fill="#70503d" opacity="0.07" rx="2" transform="rotate(-8 614 575)"/><rect x="245" y="434" width="214" height="209" fill="#c9a96e" opacity="0.20" rx="2" transform="rotate(-2 352 538)"/><rect x="212" y="230" width="126" height="225" fill="#e0d5c7" opacity="0.07" rx="2" transform="rotate(4 274 343)"/><circle cx="581" cy="468" r="113" fill="none" stroke="#c9a96e" stroke-width="2.7449118962929693" opacity="0.09"/><circle cx="431" cy="540" r="92" fill="none" stroke="#8f7060" stroke-width="1.5586623363743186" opacity="0.19"/><circle cx="525" cy="586" r="121" fill="none" stroke="#3d1f10" stroke-width="2.3396134966421998" opacity="0.14"/><line x1="0" y1="0" x2="0" y2="800" stroke="#70503d" stroke-width="0.3" opacity="0.06"/><line x1="80" y1="0" x2="80" y2="800" stroke="#70503d" stroke-width="0.3" opacity="0.06"/><line x1="160" y1="0" x2="160" y2="800" stroke="#70503d" stroke-width="0.3" opacity="0.06"/><line x1="240" y1="0" x2="240" y2="800" stroke="#70503d" stroke-width="0.3" opacity="0.06"/><line x1="320" y1="0" x2="320" y2="800" stroke="#70503d" stroke-width="0.3" opacity="0.06"/><line x1="400" y1="0" x2="400" y2="800" stroke="#70503d" stroke-width="0.3" opacity="0.06"/><line x1="480" y1="0" x2="480" y2="800" stroke="#70503d" stroke-width="0.3" opacity="0.06"/><line x1="560" y1="0" x2="560" y2="800" stroke="#70503d" stroke-width="0.3" opacity="0.06"/><line x1="640" y1="0" x2="640" y2="800" stroke="#70503d" stroke-width="0.3" opacity="0.06"/><line x1="720" y1="0" x2="720" y2="800" stroke="#70503d" stroke-width="0.3" opacity="0.06"/><line x1="800" y1="0" x2="800" y2="800" stroke="#70503d" stroke-width="0.3" opacity="0.06"/><line x1="0" y1="0" x2="800" y2="0" stroke="#70503d" stroke-width="0.3" opacity="0.06"/><line x1="0" y1="80" x2="800" y2="80" stroke="#70503d" stroke-width="0.3" opacity="0.06"/><line x1="0" y1="160" x2="800" y2="160" stroke="#70503d" stroke-width="0.3" opacity="0.06"/><line x1="0" y1="240" x2="800" y2="240" stroke="#70503d" stroke-width="0.3" opacity="0.06"/><line x1="0" y1="320" x2="800" y2="320" stroke="#70503d" stroke-width="0.3" opacity="0.06"/><line x1="0" y1="400" x2="800" y2="400" stroke="#70503d" stroke-width="0.3" opacity="0.06"/><line x1="0" y1="480" x2="800" y2="480" stroke="#70503d" stroke-width="0.3" opacity="0.06"/><line x1="0" y1="560" x2="800" y2="560" stroke="#70503d" stroke-width="0.3" opacity="0.06"/><line x1="0" y1="640" x2="800" y2="640" stroke="#70503d" stroke-width="0.3" opacity="0.06"/><line x1="0" y1="720" x2="800" y2="720" stroke="#70503d" stroke-width="0.3" opacity="0.06"/><line x1="0" y1="800" x2="800" y2="800" stroke="#70503d" stroke-width="0.3" opacity="0.06"/><text x="400" y="420" text-anchor="middle" font-family="Georgia, 'Times New Roman', serif" font-size="64" fill="#1f0a02" opacity="0.12">38</text></svg>