<svg xmlns="http://www.w3.org/2000/svg" viewBox="0 0 800 800" width="800" height="800"><defs>
    <linearGradient id="bg-x-37" x1="0" y1="0" x2="1" y2="0.8">
      <stop offset="0%" stop-color="#faf8f4"/>
      <stop offset="50%" stop-color="#e7ded3"/>
      <stop offset="100%" stop-color="#faf8f4"/>
    </linearGradient>
  </defs>
  <rect width="800" height="800" fill="url(#bg-x-37)"/><path d="M158,345 C202,119 514,398 607,352" stroke="#8f7060" stroke-width="6.096009132541724" fill="none" opacity="0.28" stroke-linecap="round"/><path d="M44,326 C261,553 411,152 655,407" stroke="#e0d5c7" stroke-width="9.891310193474693" fill="none" opacity="0.16" stroke-linecap="round"/><path d="M171,450 C273,48 575,596 734,453" stroke="#70503d" stroke-width="9.31447067886076" fill="none" opacity="0.28" stroke-linecap="round"/><rect x="571" y="519" width="65" height="116" fill="#8f7060" opacity="0.16" rx="2" transform="rotate(19 604 577)"/><rect x="564" y="334" width="132" height="105" fill="#3d1f10" opacity="0.06" rx="2" transform="rotate(-0 630 387)"/><rect x="596" y="215" width="220" height="95" fill="#8f7060" opacity="0.20" rx="2" transform="rotate(-4 707 262)"/><rect x="340" y="306" width="71" height="179" fill="#8f7060" opacity="0.15" rx="2" transform="rotate(-21 376 395)"/><circle cx="413" cy="440" r="74" fill="none" stroke="#aa8545" stroke-width="3.0147826359744956" opacity="0.20"/><circle cx="394" cy="321" r="66" fill="none" stroke="#aa8545" stroke-width="3.2808028019785906" opacity="0.15"/><circle cx="527" cy="534" r="119" fill="none" stroke="#e0d5c7" stroke-width="2.8569920890564022" opacity="0.11"/><line x1="0" y1="0" x2="0" y2="800" stroke="#70503d" stroke-width="0.3" opacity="0.06"/><line x1="80" y1="0" x2="80" y2="800" stroke="#70503d" stroke-width="0.3" opacity="0.06"/><line x1="160" y1="0" x2="160" y2="800" stroke="#70503d" stroke-width="0.3" opacity="0.06"/><line x1="240" y1="0" x2="240" y2="800" stroke="#70503d" stroke-width="0.3" opacity="0.06"/><line x1="320" y1="0" x2="320" y2="800" stroke="#70503d" stroke-width="0.3" opacity="0.06"/><line x1="400" y1="0" x2="400" y2="800" stroke="#70503d" stroke-width="0.3" opacity="0.06"/><line x1="480" y1="0" x2="480" y2="800" stroke="#70503d" stroke-width="0.3" opacity="0.06"/><line x1="560" y1="0" x2="560" y2="800" stroke="#70503d" stroke-width="0.3" opacity="0.06"/><line x1="640" y1="0" x2="640" y2="800" stroke="#70503d" stroke-width="0.3" opacity="0.06"/><line x1="720" y1="0" x2="720" y2="800" stroke="#70503d" stroke-width="0.3" opacity="0.06"/><line x1="800" y1="0" x2="800" y2="800" stroke="#70503d" stroke-width="0.3" opacity="0.06"/><line x1="0" y1="0" x2="800" y2="0" stroke="#70503d" stroke-width="0.3" opacity="0.06"/><line x1="0" y1="80" x2="800" y2="80" stroke="#70503d" stroke-width="0.3" opacity="0.06"/><line x1="0" y1="160" x2="800" y2="160" stroke="#70503d" stroke-width="0.3" opacity="0.06"/><line x1="0" y1="240" x2="800" y2="240" stroke="#70503d" stroke-width="0.3" opacity="0.06"/><line x1="0" y1="320" x2="800" y2="320" stroke="#70503d" stroke-width="0.3" opacity="0.06"/><line x1="0" y1="400" x2="800" y2="400" stroke="#70503d" stroke-width="0.3" opacity="0.06"/><line x1="0" y1="480" x2="800" y2="480" stroke="#70503d" stroke-width="0.3" opacity="0.06"/><line x1="0" y1="560" x2="800" y2="560" stroke="#70503d" stroke-width="0.3" opacity="0.06"/><line x1="0" y1="640" x2="800" y2="640" stroke="#70503d" stroke-width="0.3" opacity="0.06"/><line x1="0" y1="720" x2="800" y2="720" stroke="#70503d" stroke-width="0.3" opacity="0.06"/><line x1="0" y1="800" x2="800" y2="800" stroke="#70503d" stroke-width="0.3" opacity="0.06"/><text x="400" y="420" text-anchor="middle" font-family="Georgia, 'Times New Roman', serif" font-size="64" fill="#1f0a02" opacity="0.12">37</text></svg>