<svg xmlns="http://www.w3.org/2000/svg" viewBox="0 0 800 800" width="800" height="800"><defs>
    <radialGradient id="bg-f-23" cx="50%" cy="50%" r="60%">
      <stop offset="0%" stop-color="#faf8f4"/>
      <stop offset="100%" stop-color="#e0d5c7"/>
    </radialGradient>
    <radialGradient id="rad-f-23" cx="50%" cy="50%" r="50%">
      <stop offset="0%" stop-color="#faf8f4" stop-opacity="0.4"/>
      <stop offset="70%" stop-color="#70503d" stop-opacity="0.08"/>
      <stop offset="100%" stop-color="#1f0a02" stop-opacity="0.15"/>
    </radialGradient>
  </defs>
  <rect width="800" height="800" fill="url(#bg-f-23)"/><circle cx="400" cy="400" r="280" fill="none" stroke="#70503d" stroke-width="1" opacity="0.2"/><circle cx="400" cy="400" r="200" fill="url(#rad-f-23)"/><circle cx="400" cy="400" r="140" fill="none" stroke="#aa8545" stroke-width="0.5" opacity="0.3"/><circle cx="400" cy="400" r="65" fill="none" stroke="#e0d5c7" stroke-width="0.5657029105962281" opacity="0.04"/><circle cx="400" cy="400" r="98" fill="none" stroke="#70503d" stroke-width="2.491061502127965" opacity="0.05"/><circle cx="400" cy="400" r="158" fill="none" stroke="#8f7060" stroke-width="1.7129927158476717" opacity="0.12"/><circle cx="400" cy="400" r="193" fill="none" stroke="#e0d5c7" stroke-width="1.5353213278905686" opacity="0.12"/><circle cx="400" cy="400" r="236" fill="none" stroke="#aa8545" stroke-width="0.8404041764702687" opacity="0.04"/><circle cx="400" cy="400" r="287" fill="none" stroke="#aa8545" stroke-width="2.0322778071577456" opacity="0.08"/><line x1="460" y1="400" x2="660" y2="400" stroke="#70503d" stroke-width="0.5" opacity="0.15"/><line x1="437" y1="447" x2="562" y2="603" stroke="#70503d" stroke-width="0.5" opacity="0.15"/><line x1="387" y1="458" x2="342" y2="653" stroke="#70503d" stroke-width="0.5" opacity="0.15"/><line x1="346" y1="426" x2="166" y2="513" stroke="#70503d" stroke-width="0.5" opacity="0.15"/><line x1="346" y1="374" x2="166" y2="287" stroke="#70503d" stroke-width="0.5" opacity="0.15"/><line x1="387" y1="342" x2="342" y2="147" stroke="#70503d" stroke-width="0.5" opacity="0.15"/><line x1="437" y1="353" x2="562" y2="197" stroke="#70503d" stroke-width="0.5" opacity="0.15"/><circle cx="470" cy="798" r="3.0" fill="#3d1f10" opacity="0.08"/><circle cx="642" cy="329" r="4.9" fill="#e0d5c7" opacity="0.06"/><circle cx="692" cy="279" r="5.8" fill="#3d1f10" opacity="0.08"/><circle cx="730" cy="586" r="5.8" fill="#1f0a02" opacity="0.08"/><circle cx="176" cy="751" r="3.0" fill="#8f7060" opacity="0.05"/><circle cx="283" cy="526" r="6.5" fill="#70503d" opacity="0.14"/><circle cx="287" cy="150" r="6.2" fill="#e0d5c7" opacity="0.14"/><circle cx="658" cy="311" r="3.5" fill="#8f7060" opacity="0.12"/><circle cx="12" cy="692" r="3.7" fill="#3d1f10" opacity="0.08"/><circle cx="91" cy="1" r="2.1" fill="#70503d" opacity="0.05"/><circle cx="344" cy="697" r="7.0" fill="#70503d" opacity="0.07"/><circle cx="726" cy="64" r="5.5" fill="#aa8545" opacity="0.05"/><circle cx="4" cy="15" r="5.8" fill="#1f0a02" opacity="0.08"/><circle cx="425" cy="441" r="3.8" fill="#aa8545" opacity="0.13"/><circle cx="410" cy="65" r="5.0" fill="#e0d5c7" opacity="0.10"/><circle cx="293" cy="238" r="2.4" fill="#1f0a02" opacity="0.09"/><circle cx="534" cy="36" r="3.6" fill="#1f0a02" opacity="0.04"/><circle cx="274" cy="59" r="1.9" fill="#1f0a02" opacity="0.09"/><circle cx="798" cy="289" r="5.6" fill="#3d1f10" opacity="0.07"/><circle cx="343" cy="168" r="1.4" fill="#e0d5c7" opacity="0.14"/><circle cx="611" cy="592" r="2.3" fill="#aa8545" opacity="0.05"/><circle cx="730" cy="655" r="1.4" fill="#e0d5c7" opacity="0.07"/><circle cx="563" cy="296" r="2.0" fill="#e0d5c7" opacity="0.05"/><circle cx="295" cy="5" r="5.5" fill="#3d1f10" opacity="0.14"/><circle cx="395" cy="612" r="1.4" fill="#aa8545" opacity="0.14"/><circle cx="104" cy="631" r="4.9" fill="#8f7060" opacity="0.04"/><circle cx="313" cy="614" r="5.3" fill="#aa8545" opacity="0.12"/><circle cx="657" cy="410" r="6.3" fill="#e0d5c7" opacity="0.08"/><circle cx="553" cy="24" r="2.8" fill="#3d1f10" opacity="0.09"/><circle cx="113" cy="529" r="2.5" fill="#3d1f10" opacity="0.12"/><circle cx="323" cy="742" r="4.6" fill="#8f7060" opacity="0.11"/><circle cx="620" cy="681" r="4.3" fill="#8f7060" opacity="0.12"/><circle cx="46" cy="484" r="1.3" fill="#1f0a02" opacity="0.07"/><circle cx="706" cy="352" r="3.4" fill="#e0d5c7" opacity="0.12"/><circle cx="693" cy="675" r="1.4" fill="#3d1f10" opacity="0.06"/><circle cx="513" cy="21" r="4.8" fill="#aa8545" opacity="0.11"/><circle cx="301" cy="145" r="2.2" fill="#8f7060" opacity="0.05"/><circle cx="682" cy="246" r="1.2" fill="#aa8545" opacity="0.11"/><circle cx="628" cy="399" r="1.5" fill="#8f7060" opacity="0.11"/><circle cx="641" cy="162" r="3.7" fill="#3d1f10" opacity="0.08"/><rect width="800" height="800" fill="url(#rad-f-23)" opacity="0.3"/><text x="400" y="420" text-anchor="middle" font-family="Georgia, 'Times New Roman', serif" font-size="64" fill="#1f0a02" opacity="0.12">23</text></svg>