<svg xmlns="http://www.w3.org/2000/svg" viewBox="0 0 800 800" width="800" height="800"><defs>
    <linearGradient id="bg-r-19" x1="0" y1="0" x2="0.5" y2="1">
      <stop offset="0%" stop-color="#e7ded3"/>
      <stop offset="100%" stop-color="#faf8f4"/>
    </linearGradient>
  </defs>
  <rect width="800" height="800" fill="url(#bg-r-19)"/><polygon points="417,338 333,388 315,291" fill="#e0d5c7" opacity="0.31"/><polygon points="607,214 481,458 239,377 287,74" fill="#1f0a02" opacity="0.21"/><polygon points="486,461 416,330 489,203 647,222 641,400" fill="#aa8545" opacity="0.21"/><polygon points="448,439 458,636 349,706 236,582 288,464" fill="#1f0a02" opacity="0.11"/><polygon points="415,512 647,388 816,607 531,792" fill="#8a6a30" opacity="0.17"/><polygon points="498,467 451,796 111,704 183,329" fill="#3d1f10" opacity="0.33"/><line x1="418" y1="625" x2="483" y2="699" stroke="#e0d5c7" stroke-width="3.3226636846760877" opacity="0.09"/><line x1="269" y1="203" x2="535" y2="586" stroke="#aa8545" stroke-width="1.6326806420764706" opacity="0.20"/><line x1="390" y1="325" x2="491" y2="277" stroke="#70503d" stroke-width="1.51669850993594" opacity="0.15"/><line x1="574" y1="421" x2="465" y2="426" stroke="#8a6a30" stroke-width="2.564113596513973" opacity="0.16"/><line x1="549" y1="221" x2="173" y2="783" stroke="#e0d5c7" stroke-width="3.260364395808768" opacity="0.22"/><line x1="252" y1="702" x2="113" y2="469" stroke="#3d1f10" stroke-width="3.488399587095156" opacity="0.14"/><line x1="675" y1="278" x2="11" y2="297" stroke="#aa8545" stroke-width="1.7989057417017462" opacity="0.23"/><line x1="589" y1="428" x2="468" y2="437" stroke="#aa8545" stroke-width="2.075175424642093" opacity="0.25"/><line x1="393" y1="279" x2="197" y2="699" stroke="#3d1f10" stroke-width="1.6113003614463848" opacity="0.11"/><line x1="567" y1="34" x2="515" y2="63" stroke="#70503d" stroke-width="1.2756159880902767" opacity="0.15"/><rect x="294" y="322" width="130" height="70" fill="#70503d" opacity="0.12" transform="rotate(4 359 357)"/><rect x="298" y="327" width="123" height="60" fill="#70503d" opacity="0.12" transform="rotate(11 359 357)"/><rect x="284" y="308" width="150" height="99" fill="#1f0a02" opacity="0.23" transform="rotate(28 359 357)"/><text x="400" y="420" text-anchor="middle" font-family="Georgia, 'Times New Roman', serif" font-size="64" fill="#1f0a02" opacity="0.12">19</text></svg>