<svg xmlns="http://www.w3.org/2000/svg" viewBox="0 0 800 800" width="800" height="800"><defs>
    <linearGradient id="bg-r-13" x1="0" y1="0" x2="0.5" y2="1">
      <stop offset="0%" stop-color="#e7ded3"/>
      <stop offset="100%" stop-color="#faf8f4"/>
    </linearGradient>
  </defs>
  <rect width="800" height="800" fill="url(#bg-r-13)"/><polygon points="361,272 258,291 235,197 350,162" fill="#8a6a30" opacity="0.35"/><polygon points="545,108 594,248 498,301 391,207" fill="#70503d" opacity="0.23"/><polygon points="435,234 476,340 441,461 352,472 284,382 333,297" fill="#e0d5c7" opacity="0.22"/><polygon points="466,268 567,477 280,464" fill="#3d1f10" opacity="0.27"/><polygon points="52,199 385,54 271,414" fill="#aa8545" opacity="0.22"/><polygon points="417,526 490,530 485,615 414,643 365,576" fill="#1f0a02" opacity="0.14"/><line x1="581" y1="385" x2="120" y2="689" stroke="#e0d5c7" stroke-width="2.747085678621275" opacity="0.19"/><line x1="605" y1="602" x2="240" y2="191" stroke="#1f0a02" stroke-width="3.3276235976513693" opacity="0.18"/><line x1="99" y1="644" x2="41" y2="274" stroke="#1f0a02" stroke-width="2.458793717398116" opacity="0.26"/><line x1="519" y1="204" x2="318" y2="797" stroke="#8a6a30" stroke-width="2.5438671973942473" opacity="0.13"/><line x1="207" y1="320" x2="708" y2="409" stroke="#e0d5c7" stroke-width="1.28340721715559" opacity="0.08"/><line x1="593" y1="691" x2="709" y2="111" stroke="#e0d5c7" stroke-width="2.2289049799823246" opacity="0.26"/><line x1="588" y1="654" x2="218" y2="35" stroke="#70503d" stroke-width="2.020303928312197" opacity="0.16"/><line x1="66" y1="124" x2="68" y2="88" stroke="#3d1f10" stroke-width="1.104067395072493" opacity="0.17"/><line x1="16" y1="191" x2="640" y2="563" stroke="#8a6a30" stroke-width="3.4708897215043097" opacity="0.27"/><line x1="598" y1="107" x2="100" y2="548" stroke="#8a6a30" stroke-width="3.08331620281871" opacity="0.15"/><rect x="368" y="352" width="51" height="80" fill="#3d1f10" opacity="0.22" transform="rotate(-7 393 392)"/><rect x="332" y="333" width="122" height="117" fill="#1f0a02" opacity="0.19" transform="rotate(-11 393 392)"/><rect x="361" y="364" width="65" height="55" fill="#1f0a02" opacity="0.11" transform="rotate(-18 393 392)"/><text x="400" y="420" text-anchor="middle" font-family="Georgia, 'Times New Roman', serif" font-size="64" fill="#1f0a02" opacity="0.12">13</text></svg>