<svg xmlns="http://www.w3.org/2000/svg" viewBox="0 0 800 800" width="800" height="800"><defs>
    <linearGradient id="bg-x-35" x1="0" y1="0" x2="1" y2="0.8">
      <stop offset="0%" stop-color="#faf8f4"/>
      <stop offset="50%" stop-color="#e7ded3"/>
      <stop offset="100%" stop-color="#faf8f4"/>
    </linearGradient>
  </defs>
  <rect width="800" height="800" fill="url(#bg-x-35)"/><path d="M138,359 C262,523 405,182 645,247" stroke="#1f0a02" stroke-width="9.496224856466263" fill="none" opacity="0.13" stroke-linecap="round"/><path d="M101,287 C295,523 475,144 646,547" stroke="#c9a96e" stroke-width="11.140428561848056" fill="none" opacity="0.31" stroke-linecap="round"/><path d="M70,383 C318,478 495,369 748,494" stroke="#1f0a02" stroke-width="6.378553343358034" fill="none" opacity="0.26" stroke-linecap="round"/><rect x="573" y="186" width="189" height="205" fill="#c9a96e" opacity="0.09" rx="2" transform="rotate(-10 667 288)"/><rect x="593" y="551" width="139" height="119" fill="#70503d" opacity="0.18" rx="2" transform="rotate(16 663 611)"/><rect x="299" y="276" width="233" height="66" fill="#1f0a02" opacity="0.20" rx="2" transform="rotate(-7 416 309)"/><rect x="598" y="457" width="163" height="86" fill="#70503d" opacity="0.18" rx="2" transform="rotate(21 679 499)"/><circle cx="478" cy="384" r="96" fill="none" stroke="#8f7060" stroke-width="3.554524115337547" opacity="0.10"/><circle cx="318" cy="282" r="116" fill="none" stroke="#70503d" stroke-width="3.725083731790151" opacity="0.20"/><circle cx="531" cy="429" r="114" fill="none" stroke="#1f0a02" stroke-width="3.891749273884808" opacity="0.21"/><line x1="0" y1="0" x2="0" y2="800" stroke="#70503d" stroke-width="0.3" opacity="0.06"/><line x1="80" y1="0" x2="80" y2="800" stroke="#70503d" stroke-width="0.3" opacity="0.06"/><line x1="160" y1="0" x2="160" y2="800" stroke="#70503d" stroke-width="0.3" opacity="0.06"/><line x1="240" y1="0" x2="240" y2="800" stroke="#70503d" stroke-width="0.3" opacity="0.06"/><line x1="320" y1="0" x2="320" y2="800" stroke="#70503d" stroke-width="0.3" opacity="0.06"/><line x1="400" y1="0" x2="400" y2="800" stroke="#70503d" stroke-width="0.3" opacity="0.06"/><line x1="480" y1="0" x2="480" y2="800" stroke="#70503d" stroke-width="0.3" opacity="0.06"/><line x1="560" y1="0" x2="560" y2="800" stroke="#70503d" stroke-width="0.3" opacity="0.06"/><line x1="640" y1="0" x2="640" y2="800" stroke="#70503d" stroke-width="0.3" opacity="0.06"/><line x1="720" y1="0" x2="720" y2="800" stroke="#70503d" stroke-width="0.3" opacity="0.06"/><line x1="800" y1="0" x2="800" y2="800" stroke="#70503d" stroke-width="0.3" opacity="0.06"/><line x1="0" y1="0" x2="800" y2="0" stroke="#70503d" stroke-width="0.3" opacity="0.06"/><line x1="0" y1="80" x2="800" y2="80" stroke="#70503d" stroke-width="0.3" opacity="0.06"/><line x1="0" y1="160" x2="800" y2="160" stroke="#70503d" stroke-width="0.3" opacity="0.06"/><line x1="0" y1="240" x2="800" y2="240" stroke="#70503d" stroke-width="0.3" opacity="0.06"/><line x1="0" y1="320" x2="800" y2="320" stroke="#70503d" stroke-width="0.3" opacity="0.06"/><line x1="0" y1="400" x2="800" y2="400" stroke="#70503d" stroke-width="0.3" opacity="0.06"/><line x1="0" y1="480" x2="800" y2="480" stroke="#70503d" stroke-width="0.3" opacity="0.06"/><line x1="0" y1="560" x2="800" y2="560" stroke="#70503d" stroke-width="0.3" opacity="0.06"/><line x1="0" y1="640" x2="800" y2="640" stroke="#70503d" stroke-width="0.3" opacity="0.06"/><line x1="0" y1="720" x2="800" y2="720" stroke="#70503d" stroke-width="0.3" opacity="0.06"/><line x1="0" y1="800" x2="800" y2="800" stroke="#70503d" stroke-width="0.3" opacity="0.06"/><text x="400" y="420" text-anchor="middle" font-family="Georgia, 'Times New Roman', serif" font-size="64" fill="#1f0a02" opacity="0.12">35</text></svg>