<svg xmlns="http://www.w3.org/2000/svg" viewBox="0 0 800 800" width="800" height="800"><defs>
    <linearGradient id="bg-m-1" x1="0" y1="0" x2="1" y2="1">
      <stop offset="0%" stop-color="#faf8f4"/>
      <stop offset="100%" stop-color="#e7ded3"/>
    </linearGradient>
  </defs>
  <rect width="800" height="800" fill="url(#bg-m-1)"/><path d="M719,514 C8,693 195,172 248,599"
      stroke="#70503d" stroke-width="18.84555207644175" fill="none" opacity="0.39" stroke-linecap="round"/><path d="M234,501 C368,1 178,383 167,261"
      stroke="#e0d5c7" stroke-width="8.302328512354128" fill="none" opacity="0.21" stroke-linecap="round"/><path d="M153,393 C369,795 260,403 766,232"
      stroke="#aa8545" stroke-width="21.993050578975165" fill="none" opacity="0.17" stroke-linecap="round"/><path d="M366,233 C368,113 679,670 257,14"
      stroke="#3d1f10" stroke-width="8.735027462928581" fill="none" opacity="0.22" stroke-linecap="round"/><path d="M643,582 C64,145 396,683 491,386"
      stroke="#8f7060" stroke-width="10.745546643385243" fill="none" opacity="0.34" stroke-linecap="round"/><circle cx="496" cy="379" r="113" fill="#c9a96e" opacity="0.26"/><circle cx="417" cy="438" r="136" fill="#c9a96e" opacity="0.11"/><circle cx="357" cy="668" r="142" fill="#aa8545" opacity="0.19"/><line x1="356" y1="478" x2="367" y2="619" stroke="#70503d" stroke-width="2.7" opacity="0.18" stroke-linecap="round"/><line x1="770" y1="116" x2="611" y2="633" stroke="#c9a96e" stroke-width="5.7" opacity="0.09" stroke-linecap="round"/><line x1="677" y1="560" x2="266" y2="701" stroke="#70503d" stroke-width="8.3" opacity="0.06" stroke-linecap="round"/><line x1="442" y1="246" x2="198" y2="255" stroke="#aa8545" stroke-width="2.8" opacity="0.17" stroke-linecap="round"/><line x1="62" y1="306" x2="300" y2="484" stroke="#aa8545" stroke-width="6.2" opacity="0.11" stroke-linecap="round"/><line x1="242" y1="653" x2="154" y2="448" stroke="#e0d5c7" stroke-width="5.7" opacity="0.10" stroke-linecap="round"/><line x1="383" y1="733" x2="339" y2="646" stroke="#c9a96e" stroke-width="6.5" opacity="0.11" stroke-linecap="round"/><line x1="305" y1="523" x2="99" y2="8" stroke="#8f7060" stroke-width="2.2" opacity="0.17" stroke-linecap="round"/><text x="400" y="420" text-anchor="middle" font-family="Georgia, 'Times New Roman', serif" font-size="64" fill="#1f0a02" opacity="0.12">1</text></svg>