<svg xmlns="http://www.w3.org/2000/svg" viewBox="0 0 800 800" width="800" height="800"><defs>
    <radialGradient id="bg-f-30" cx="50%" cy="50%" r="60%">
      <stop offset="0%" stop-color="#faf8f4"/>
      <stop offset="100%" stop-color="#e0d5c7"/>
    </radialGradient>
    <radialGradient id="rad-f-30" cx="50%" cy="50%" r="50%">
      <stop offset="0%" stop-color="#faf8f4" stop-opacity="0.4"/>
      <stop offset="70%" stop-color="#70503d" stop-opacity="0.08"/>
      <stop offset="100%" stop-color="#1f0a02" stop-opacity="0.15"/>
    </radialGradient>
  </defs>
  <rect width="800" height="800" fill="url(#bg-f-30)"/><circle cx="400" cy="400" r="280" fill="none" stroke="#70503d" stroke-width="1" opacity="0.2"/><circle cx="400" cy="400" r="200" fill="url(#rad-f-30)"/><circle cx="400" cy="400" r="140" fill="none" stroke="#aa8545" stroke-width="0.5" opacity="0.3"/><circle cx="400" cy="400" r="70" fill="none" stroke="#8f7060" stroke-width="1.1943951013445808" opacity="0.11"/><circle cx="400" cy="400" r="102" fill="none" stroke="#1f0a02" stroke-width="2.3144280461728837" opacity="0.11"/><circle cx="400" cy="400" r="151" fill="none" stroke="#8f7060" stroke-width="1.5604252815809336" opacity="0.05"/><circle cx="400" cy="400" r="191" fill="none" stroke="#aa8545" stroke-width="0.8069408622634977" opacity="0.12"/><circle cx="400" cy="400" r="238" fill="none" stroke="#8f7060" stroke-width="0.9440054478533617" opacity="0.08"/><circle cx="400" cy="400" r="279" fill="none" stroke="#e0d5c7" stroke-width="1.1942754003165992" opacity="0.12"/><line x1="460" y1="400" x2="660" y2="400" stroke="#70503d" stroke-width="0.5" opacity="0.15"/><line x1="437" y1="447" x2="562" y2="603" stroke="#70503d" stroke-width="0.5" opacity="0.15"/><line x1="387" y1="458" x2="342" y2="653" stroke="#70503d" stroke-width="0.5" opacity="0.15"/><line x1="346" y1="426" x2="166" y2="513" stroke="#70503d" stroke-width="0.5" opacity="0.15"/><line x1="346" y1="374" x2="166" y2="287" stroke="#70503d" stroke-width="0.5" opacity="0.15"/><line x1="387" y1="342" x2="342" y2="147" stroke="#70503d" stroke-width="0.5" opacity="0.15"/><line x1="437" y1="353" x2="562" y2="197" stroke="#70503d" stroke-width="0.5" opacity="0.15"/><circle cx="300" cy="797" r="4.1" fill="#70503d" opacity="0.11"/><circle cx="246" cy="325" r="5.1" fill="#aa8545" opacity="0.13"/><circle cx="485" cy="51" r="6.3" fill="#aa8545" opacity="0.13"/><circle cx="569" cy="312" r="1.8" fill="#3d1f10" opacity="0.11"/><circle cx="682" cy="5" r="3.3" fill="#8f7060" opacity="0.10"/><circle cx="195" cy="408" r="1.7" fill="#8f7060" opacity="0.06"/><circle cx="653" cy="404" r="3.1" fill="#1f0a02" opacity="0.10"/><circle cx="754" cy="370" r="1.4" fill="#8f7060" opacity="0.07"/><circle cx="503" cy="728" r="1.4" fill="#aa8545" opacity="0.08"/><circle cx="398" cy="697" r="2.5" fill="#8f7060" opacity="0.05"/><circle cx="726" cy="666" r="1.8" fill="#8f7060" opacity="0.12"/><circle cx="669" cy="396" r="3.2" fill="#e0d5c7" opacity="0.04"/><circle cx="248" cy="749" r="3.4" fill="#1f0a02" opacity="0.10"/><circle cx="381" cy="123" r="7.0" fill="#70503d" opacity="0.06"/><circle cx="709" cy="51" r="1.0" fill="#1f0a02" opacity="0.09"/><circle cx="451" cy="241" r="3.8" fill="#8f7060" opacity="0.07"/><circle cx="280" cy="394" r="4.7" fill="#3d1f10" opacity="0.10"/><circle cx="9" cy="321" r="5.1" fill="#aa8545" opacity="0.06"/><circle cx="763" cy="620" r="6.8" fill="#8f7060" opacity="0.06"/><circle cx="518" cy="497" r="5.0" fill="#70503d" opacity="0.11"/><circle cx="693" cy="529" r="4.1" fill="#8f7060" opacity="0.14"/><circle cx="326" cy="54" r="6.5" fill="#8f7060" opacity="0.10"/><circle cx="317" cy="178" r="2.5" fill="#3d1f10" opacity="0.09"/><circle cx="37" cy="76" r="3.5" fill="#aa8545" opacity="0.13"/><circle cx="480" cy="103" r="2.4" fill="#aa8545" opacity="0.07"/><circle cx="275" cy="650" r="5.3" fill="#3d1f10" opacity="0.08"/><circle cx="478" cy="766" r="2.1" fill="#3d1f10" opacity="0.13"/><circle cx="265" cy="779" r="4.0" fill="#1f0a02" opacity="0.08"/><circle cx="652" cy="622" r="4.6" fill="#1f0a02" opacity="0.07"/><circle cx="426" cy="411" r="3.5" fill="#1f0a02" opacity="0.09"/><circle cx="769" cy="376" r="5.8" fill="#e0d5c7" opacity="0.06"/><circle cx="217" cy="506" r="1.7" fill="#70503d" opacity="0.12"/><circle cx="790" cy="5" r="2.5" fill="#1f0a02" opacity="0.04"/><circle cx="538" cy="668" r="6.0" fill="#e0d5c7" opacity="0.05"/><circle cx="278" cy="463" r="5.4" fill="#70503d" opacity="0.13"/><circle cx="251" cy="236" r="1.0" fill="#3d1f10" opacity="0.06"/><circle cx="601" cy="781" r="7.0" fill="#aa8545" opacity="0.10"/><circle cx="20" cy="738" r="5.2" fill="#70503d" opacity="0.11"/><circle cx="680" cy="137" r="2.2" fill="#8f7060" opacity="0.09"/><circle cx="767" cy="525" r="5.6" fill="#aa8545" opacity="0.13"/><rect width="800" height="800" fill="url(#rad-f-30)" opacity="0.3"/><text x="400" y="420" text-anchor="middle" font-family="Georgia, 'Times New Roman', serif" font-size="64" fill="#1f0a02" opacity="0.12">30</text></svg>