<svg xmlns="http://www.w3.org/2000/svg" viewBox="0 0 800 800" width="800" height="800"><defs>
    <linearGradient id="bg-m-2" x1="0" y1="0" x2="1" y2="1">
      <stop offset="0%" stop-color="#faf8f4"/>
      <stop offset="100%" stop-color="#e7ded3"/>
    </linearGradient>
  </defs>
  <rect width="800" height="800" fill="url(#bg-m-2)"/><path d="M638,227 C17,586 391,344 496,397"
      stroke="#e0d5c7" stroke-width="13.691104152883499" fill="none" opacity="0.28" stroke-linecap="round"/><path d="M468,203 C736,1 357,765 335,523"
      stroke="#3d1f10" stroke-width="12.604657034021482" fill="none" opacity="0.28" stroke-linecap="round"/><path d="M306,787 C739,790 520,6 731,463"
      stroke="#70503d" stroke-width="19.98610115795033" fill="none" opacity="0.19" stroke-linecap="round"/><path d="M732,466 C736,226 559,540 513,27"
      stroke="#e0d5c7" stroke-width="13.470054935170388" fill="none" opacity="0.29" stroke-linecap="round"/><path d="M486,364 C129,290 793,565 181,771"
      stroke="#3d1f10" stroke-width="17.49109329608371" fill="none" opacity="0.19" stroke-linecap="round"/><circle cx="192" cy="758" r="147" fill="#70503d" opacity="0.25"/><circle cx="34" cy="75" r="193" fill="#aa8545" opacity="0.13"/><circle cx="715" cy="536" r="204" fill="#70503d" opacity="0.12"/><line x1="713" y1="157" x2="733" y2="438" stroke="#c9a96e" stroke-width="3.4" opacity="0.17" stroke-linecap="round"/><line x1="740" y1="231" x2="422" y2="467" stroke="#70503d" stroke-width="9.4" opacity="0.11" stroke-linecap="round"/><line x1="554" y1="319" x2="531" y2="601" stroke="#c9a96e" stroke-width="6.5" opacity="0.07" stroke-linecap="round"/><line x1="84" y1="492" x2="395" y2="510" stroke="#aa8545" stroke-width="3.6" opacity="0.17" stroke-linecap="round"/><line x1="124" y1="612" x2="601" y2="169" stroke="#aa8545" stroke-width="2.4" opacity="0.16" stroke-linecap="round"/><line x1="484" y1="506" x2="309" y2="95" stroke="#8f7060" stroke-width="9.5" opacity="0.14" stroke-linecap="round"/><line x1="766" y1="666" x2="678" y2="491" stroke="#70503d" stroke-width="3.1" opacity="0.17" stroke-linecap="round"/><line x1="610" y1="247" x2="199" y2="17" stroke="#3d1f10" stroke-width="2.5" opacity="0.16" stroke-linecap="round"/><text x="400" y="420" text-anchor="middle" font-family="Georgia, 'Times New Roman', serif" font-size="64" fill="#1f0a02" opacity="0.12">2</text></svg>