<svg xmlns="http://www.w3.org/2000/svg" viewBox="0 0 800 800" width="800" height="800"><defs>
    <radialGradient id="bg-f-28" cx="50%" cy="50%" r="60%">
      <stop offset="0%" stop-color="#faf8f4"/>
      <stop offset="100%" stop-color="#e0d5c7"/>
    </radialGradient>
    <radialGradient id="rad-f-28" cx="50%" cy="50%" r="50%">
      <stop offset="0%" stop-color="#faf8f4" stop-opacity="0.4"/>
      <stop offset="70%" stop-color="#70503d" stop-opacity="0.08"/>
      <stop offset="100%" stop-color="#1f0a02" stop-opacity="0.15"/>
    </radialGradient>
  </defs>
  <rect width="800" height="800" fill="url(#bg-f-28)"/><circle cx="400" cy="400" r="280" fill="none" stroke="#70503d" stroke-width="1" opacity="0.2"/><circle cx="400" cy="400" r="200" fill="url(#rad-f-28)"/><circle cx="400" cy="400" r="140" fill="none" stroke="#aa8545" stroke-width="0.5" opacity="0.3"/><circle cx="400" cy="400" r="68" fill="none" stroke="#3d1f10" stroke-width="1.0147687611307656" opacity="0.12"/><circle cx="400" cy="400" r="112" fill="none" stroke="#1f0a02" stroke-width="1.7934661761796717" opacity="0.05"/><circle cx="400" cy="400" r="153" fill="none" stroke="#8f7060" stroke-width="1.8897302629330477" opacity="0.05"/><circle cx="400" cy="400" r="197" fill="none" stroke="#aa8545" stroke-width="1.5864781384230389" opacity="0.05"/><circle cx="400" cy="400" r="234" fill="none" stroke="#aa8545" stroke-width="0.9144050846010494" opacity="0.08"/><circle cx="400" cy="400" r="284" fill="none" stroke="#8f7060" stroke-width="1.1479903735667376" opacity="0.12"/><line x1="460" y1="400" x2="660" y2="400" stroke="#70503d" stroke-width="0.5" opacity="0.15"/><line x1="437" y1="447" x2="562" y2="603" stroke="#70503d" stroke-width="0.5" opacity="0.15"/><line x1="387" y1="458" x2="342" y2="653" stroke="#70503d" stroke-width="0.5" opacity="0.15"/><line x1="346" y1="426" x2="166" y2="513" stroke="#70503d" stroke-width="0.5" opacity="0.15"/><line x1="346" y1="374" x2="166" y2="287" stroke="#70503d" stroke-width="0.5" opacity="0.15"/><line x1="387" y1="342" x2="342" y2="147" stroke="#70503d" stroke-width="0.5" opacity="0.15"/><line x1="437" y1="353" x2="562" y2="197" stroke="#70503d" stroke-width="0.5" opacity="0.15"/><circle cx="120" cy="797" r="5.5" fill="#8f7060" opacity="0.04"/><circle cx="16" cy="783" r="1.6" fill="#70503d" opacity="0.12"/><circle cx="772" cy="687" r="2.7" fill="#3d1f10" opacity="0.06"/><circle cx="158" cy="504" r="2.9" fill="#1f0a02" opacity="0.06"/><circle cx="423" cy="218" r="2.3" fill="#e0d5c7" opacity="0.06"/><circle cx="449" cy="327" r="5.6" fill="#3d1f10" opacity="0.11"/><circle cx="663" cy="217" r="6.6" fill="#aa8545" opacity="0.10"/><circle cx="383" cy="239" r="4.6" fill="#8f7060" opacity="0.04"/><circle cx="363" cy="146" r="3.8" fill="#3d1f10" opacity="0.05"/><circle cx="424" cy="384" r="2.4" fill="#70503d" opacity="0.05"/><circle cx="731" cy="675" r="4.1" fill="#3d1f10" opacity="0.12"/><circle cx="571" cy="530" r="3.9" fill="#aa8545" opacity="0.12"/><circle cx="178" cy="539" r="3.2" fill="#8f7060" opacity="0.12"/><circle cx="622" cy="328" r="1.8" fill="#70503d" opacity="0.08"/><circle cx="395" cy="740" r="3.0" fill="#8f7060" opacity="0.08"/><circle cx="635" cy="12" r="6.8" fill="#3d1f10" opacity="0.06"/><circle cx="581" cy="635" r="5.2" fill="#aa8545" opacity="0.09"/><circle cx="542" cy="246" r="1.6" fill="#aa8545" opacity="0.11"/><circle cx="659" cy="526" r="5.6" fill="#70503d" opacity="0.10"/><circle cx="696" cy="518" r="3.1" fill="#3d1f10" opacity="0.13"/><circle cx="327" cy="547" r="1.9" fill="#aa8545" opacity="0.10"/><circle cx="785" cy="797" r="3.3" fill="#e0d5c7" opacity="0.05"/><circle cx="616" cy="326" r="3.2" fill="#aa8545" opacity="0.09"/><circle cx="568" cy="284" r="4.9" fill="#1f0a02" opacity="0.12"/><circle cx="342" cy="363" r="4.7" fill="#3d1f10" opacity="0.06"/><circle cx="684" cy="73" r="2.6" fill="#e0d5c7" opacity="0.10"/><circle cx="659" cy="609" r="6.4" fill="#8f7060" opacity="0.10"/><circle cx="34" cy="673" r="3.8" fill="#1f0a02" opacity="0.04"/><circle cx="395" cy="794" r="2.4" fill="#aa8545" opacity="0.05"/><circle cx="451" cy="331" r="4.9" fill="#8f7060" opacity="0.13"/><circle cx="184" cy="138" r="5.4" fill="#1f0a02" opacity="0.08"/><circle cx="789" cy="99" r="2.5" fill="#aa8545" opacity="0.07"/><circle cx="578" cy="484" r="5.6" fill="#8f7060" opacity="0.05"/><circle cx="129" cy="464" r="5.3" fill="#3d1f10" opacity="0.07"/><circle cx="739" cy="752" r="5.1" fill="#8f7060" opacity="0.06"/><circle cx="555" cy="61" r="3.8" fill="#8f7060" opacity="0.06"/><circle cx="401" cy="142" r="2.2" fill="#8f7060" opacity="0.04"/><circle cx="552" cy="369" r="4.9" fill="#aa8545" opacity="0.13"/><circle cx="208" cy="555" r="3.7" fill="#1f0a02" opacity="0.08"/><circle cx="502" cy="650" r="2.4" fill="#1f0a02" opacity="0.04"/><rect width="800" height="800" fill="url(#rad-f-28)" opacity="0.3"/><text x="400" y="420" text-anchor="middle" font-family="Georgia, 'Times New Roman', serif" font-size="64" fill="#1f0a02" opacity="0.12">28</text></svg>