<svg xmlns="http://www.w3.org/2000/svg" viewBox="0 0 800 800" width="800" height="800"><defs>
    <linearGradient id="bg-x-32" x1="0" y1="0" x2="1" y2="0.8">
      <stop offset="0%" stop-color="#faf8f4"/>
      <stop offset="50%" stop-color="#e7ded3"/>
      <stop offset="100%" stop-color="#faf8f4"/>
    </linearGradient>
  </defs>
  <rect width="800" height="800" fill="url(#bg-x-32)"/><path d="M109,379 C251,730 542,257 601,288" stroke="#3d1f10" stroke-width="8.596548439559106" fill="none" opacity="0.22" stroke-linecap="round"/><path d="M86,428 C247,478 571,132 734,358" stroke="#e0d5c7" stroke-width="7.014106111614132" fill="none" opacity="0.22" stroke-linecap="round"/><path d="M18,481 C285,322 475,429 770,354" stroke="#aa8545" stroke-width="13.97467734569188" fill="none" opacity="0.23" stroke-linecap="round"/><rect x="575" y="436" width="75" height="238" fill="#3d1f10" opacity="0.14" rx="2" transform="rotate(-9 613 555)"/><rect x="137" y="127" width="149" height="240" fill="#aa8545" opacity="0.14" rx="2" transform="rotate(-6 211 246)"/><rect x="354" y="118" width="253" height="122" fill="#aa8545" opacity="0.20" rx="2" transform="rotate(-13 480 179)"/><rect x="483" y="183" width="200" height="146" fill="#c9a96e" opacity="0.14" rx="2" transform="rotate(-8 583 256)"/><circle cx="374" cy="300" r="79" fill="none" stroke="#1f0a02" stroke-width="1.3641363329851406" opacity="0.11"/><circle cx="205" cy="424" r="40" fill="none" stroke="#c9a96e" stroke-width="2.891505125809" opacity="0.22"/><circle cx="537" cy="272" r="107" fill="none" stroke="#1f0a02" stroke-width="2.443885049730432" opacity="0.14"/><line x1="0" y1="0" x2="0" y2="800" stroke="#70503d" stroke-width="0.3" opacity="0.06"/><line x1="80" y1="0" x2="80" y2="800" stroke="#70503d" stroke-width="0.3" opacity="0.06"/><line x1="160" y1="0" x2="160" y2="800" stroke="#70503d" stroke-width="0.3" opacity="0.06"/><line x1="240" y1="0" x2="240" y2="800" stroke="#70503d" stroke-width="0.3" opacity="0.06"/><line x1="320" y1="0" x2="320" y2="800" stroke="#70503d" stroke-width="0.3" opacity="0.06"/><line x1="400" y1="0" x2="400" y2="800" stroke="#70503d" stroke-width="0.3" opacity="0.06"/><line x1="480" y1="0" x2="480" y2="800" stroke="#70503d" stroke-width="0.3" opacity="0.06"/><line x1="560" y1="0" x2="560" y2="800" stroke="#70503d" stroke-width="0.3" opacity="0.06"/><line x1="640" y1="0" x2="640" y2="800" stroke="#70503d" stroke-width="0.3" opacity="0.06"/><line x1="720" y1="0" x2="720" y2="800" stroke="#70503d" stroke-width="0.3" opacity="0.06"/><line x1="800" y1="0" x2="800" y2="800" stroke="#70503d" stroke-width="0.3" opacity="0.06"/><line x1="0" y1="0" x2="800" y2="0" stroke="#70503d" stroke-width="0.3" opacity="0.06"/><line x1="0" y1="80" x2="800" y2="80" stroke="#70503d" stroke-width="0.3" opacity="0.06"/><line x1="0" y1="160" x2="800" y2="160" stroke="#70503d" stroke-width="0.3" opacity="0.06"/><line x1="0" y1="240" x2="800" y2="240" stroke="#70503d" stroke-width="0.3" opacity="0.06"/><line x1="0" y1="320" x2="800" y2="320" stroke="#70503d" stroke-width="0.3" opacity="0.06"/><line x1="0" y1="400" x2="800" y2="400" stroke="#70503d" stroke-width="0.3" opacity="0.06"/><line x1="0" y1="480" x2="800" y2="480" stroke="#70503d" stroke-width="0.3" opacity="0.06"/><line x1="0" y1="560" x2="800" y2="560" stroke="#70503d" stroke-width="0.3" opacity="0.06"/><line x1="0" y1="640" x2="800" y2="640" stroke="#70503d" stroke-width="0.3" opacity="0.06"/><line x1="0" y1="720" x2="800" y2="720" stroke="#70503d" stroke-width="0.3" opacity="0.06"/><line x1="0" y1="800" x2="800" y2="800" stroke="#70503d" stroke-width="0.3" opacity="0.06"/><text x="400" y="420" text-anchor="middle" font-family="Georgia, 'Times New Roman', serif" font-size="64" fill="#1f0a02" opacity="0.12">32</text></svg>