<svg xmlns="http://www.w3.org/2000/svg" viewBox="0 0 800 800" width="800" height="800"><defs>
    <linearGradient id="bg-r-14" x1="0" y1="0" x2="0.5" y2="1">
      <stop offset="0%" stop-color="#e7ded3"/>
      <stop offset="100%" stop-color="#faf8f4"/>
    </linearGradient>
  </defs>
  <rect width="800" height="800" fill="url(#bg-r-14)"/><polygon points="241,501 228,394 367,356 397,459 348,555" fill="#e0d5c7" opacity="0.27"/><polygon points="398,449 173,229 456,164" fill="#3d1f10" opacity="0.22"/><polygon points="340,525 387,353 571,345 529,537" fill="#70503d" opacity="0.19"/><polygon points="436,154 513,363 389,562 150,548 2,320 225,117" fill="#70503d" opacity="0.24"/><polygon points="215,539 441,350 475,725" fill="#3d1f10" opacity="0.14"/><polygon points="598,132 696,287 743,478 550,471 392,420 397,239" fill="#1f0a02" opacity="0.27"/><line x1="150" y1="103" x2="625" y2="282" stroke="#3d1f10" stroke-width="2.462631160824216" opacity="0.25"/><line x1="118" y1="680" x2="545" y2="414" stroke="#1f0a02" stroke-width="3.028264496967443" opacity="0.28"/><line x1="11" y1="786" x2="480" y2="128" stroke="#8a6a30" stroke-width="3.7567311173833264" opacity="0.17"/><line x1="101" y1="224" x2="13" y2="531" stroke="#aa8545" stroke-width="1.2690576741183714" opacity="0.10"/><line x1="281" y1="494" x2="697" y2="270" stroke="#e0d5c7" stroke-width="2.1390075582442876" opacity="0.13"/><line x1="80" y1="766" x2="784" y2="203" stroke="#3d1f10" stroke-width="2.2944069982454245" opacity="0.09"/><line x1="560" y1="96" x2="662" y2="687" stroke="#3d1f10" stroke-width="2.04938652277867" opacity="0.11"/><line x1="10" y1="154" x2="338" y2="79" stroke="#70503d" stroke-width="1.1947949325617355" opacity="0.22"/><line x1="245" y1="386" x2="710" y2="460" stroke="#1f0a02" stroke-width="2.7523275672014127" opacity="0.12"/><line x1="99" y1="544" x2="475" y2="434" stroke="#3d1f10" stroke-width="3.456549960148102" opacity="0.25"/><rect x="320" y="400" width="143" height="82" fill="#8a6a30" opacity="0.11" transform="rotate(-16 391 442)"/><rect x="359" y="362" width="65" height="159" fill="#e0d5c7" opacity="0.20" transform="rotate(1 391 442)"/><rect x="328" y="364" width="126" height="155" fill="#3d1f10" opacity="0.17" transform="rotate(8 391 442)"/><text x="400" y="420" text-anchor="middle" font-family="Georgia, 'Times New Roman', serif" font-size="64" fill="#1f0a02" opacity="0.12">14</text></svg>