<svg xmlns="http://www.w3.org/2000/svg" viewBox="0 0 800 800" width="800" height="800"><defs>
    <linearGradient id="bg-x-34" x1="0" y1="0" x2="1" y2="0.8">
      <stop offset="0%" stop-color="#faf8f4"/>
      <stop offset="50%" stop-color="#e7ded3"/>
      <stop offset="100%" stop-color="#faf8f4"/>
    </linearGradient>
  </defs>
  <rect width="800" height="800" fill="url(#bg-x-34)"/><path d="M129,366 C391,326 451,474 764,394" stroke="#aa8545" stroke-width="5.196332715634567" fill="none" opacity="0.16" stroke-linecap="round"/><path d="M29,468 C213,508 507,140 742,217" stroke="#8f7060" stroke-width="5.76498774324077" fill="none" opacity="0.28" stroke-linecap="round"/><path d="M119,549 C240,693 555,656 755,314" stroke="#8f7060" stroke-width="4.910594675606671" fill="none" opacity="0.25" stroke-linecap="round"/><rect x="574" y="269" width="151" height="150" fill="#8f7060" opacity="0.06" rx="2" transform="rotate(20 649 344)"/><rect x="108" y="410" width="142" height="226" fill="#3d1f10" opacity="0.17" rx="2" transform="rotate(-22 179 523)"/><rect x="151" y="557" width="240" height="151" fill="#c9a96e" opacity="0.20" rx="2" transform="rotate(-9 271 632)"/><rect x="226" y="532" width="108" height="239" fill="#1f0a02" opacity="0.12" rx="2" transform="rotate(-4 280 652)"/><circle cx="310" cy="356" r="57" fill="none" stroke="#1f0a02" stroke-width="3.8243948550190727" opacity="0.20"/><circle cx="281" cy="463" r="90" fill="none" stroke="#1f0a02" stroke-width="2.4472241959974395" opacity="0.16"/><circle cx="533" cy="377" r="112" fill="none" stroke="#e0d5c7" stroke-width="1.409127864902027" opacity="0.19"/><line x1="0" y1="0" x2="0" y2="800" stroke="#70503d" stroke-width="0.3" opacity="0.06"/><line x1="80" y1="0" x2="80" y2="800" stroke="#70503d" stroke-width="0.3" opacity="0.06"/><line x1="160" y1="0" x2="160" y2="800" stroke="#70503d" stroke-width="0.3" opacity="0.06"/><line x1="240" y1="0" x2="240" y2="800" stroke="#70503d" stroke-width="0.3" opacity="0.06"/><line x1="320" y1="0" x2="320" y2="800" stroke="#70503d" stroke-width="0.3" opacity="0.06"/><line x1="400" y1="0" x2="400" y2="800" stroke="#70503d" stroke-width="0.3" opacity="0.06"/><line x1="480" y1="0" x2="480" y2="800" stroke="#70503d" stroke-width="0.3" opacity="0.06"/><line x1="560" y1="0" x2="560" y2="800" stroke="#70503d" stroke-width="0.3" opacity="0.06"/><line x1="640" y1="0" x2="640" y2="800" stroke="#70503d" stroke-width="0.3" opacity="0.06"/><line x1="720" y1="0" x2="720" y2="800" stroke="#70503d" stroke-width="0.3" opacity="0.06"/><line x1="800" y1="0" x2="800" y2="800" stroke="#70503d" stroke-width="0.3" opacity="0.06"/><line x1="0" y1="0" x2="800" y2="0" stroke="#70503d" stroke-width="0.3" opacity="0.06"/><line x1="0" y1="80" x2="800" y2="80" stroke="#70503d" stroke-width="0.3" opacity="0.06"/><line x1="0" y1="160" x2="800" y2="160" stroke="#70503d" stroke-width="0.3" opacity="0.06"/><line x1="0" y1="240" x2="800" y2="240" stroke="#70503d" stroke-width="0.3" opacity="0.06"/><line x1="0" y1="320" x2="800" y2="320" stroke="#70503d" stroke-width="0.3" opacity="0.06"/><line x1="0" y1="400" x2="800" y2="400" stroke="#70503d" stroke-width="0.3" opacity="0.06"/><line x1="0" y1="480" x2="800" y2="480" stroke="#70503d" stroke-width="0.3" opacity="0.06"/><line x1="0" y1="560" x2="800" y2="560" stroke="#70503d" stroke-width="0.3" opacity="0.06"/><line x1="0" y1="640" x2="800" y2="640" stroke="#70503d" stroke-width="0.3" opacity="0.06"/><line x1="0" y1="720" x2="800" y2="720" stroke="#70503d" stroke-width="0.3" opacity="0.06"/><line x1="0" y1="800" x2="800" y2="800" stroke="#70503d" stroke-width="0.3" opacity="0.06"/><text x="400" y="420" text-anchor="middle" font-family="Georgia, 'Times New Roman', serif" font-size="64" fill="#1f0a02" opacity="0.12">34</text></svg>