<svg xmlns="http://www.w3.org/2000/svg" viewBox="0 0 800 800" width="800" height="800"><defs>
    <linearGradient id="bg-m-4" x1="0" y1="0" x2="1" y2="1">
      <stop offset="0%" stop-color="#faf8f4"/>
      <stop offset="100%" stop-color="#e7ded3"/>
    </linearGradient>
  </defs>
  <rect width="800" height="800" fill="url(#bg-m-4)"/><path d="M476,455 C33,371 782,689 191,795"
      stroke="#8f7060" stroke-width="23.382208315080224" fill="none" opacity="0.41" stroke-linecap="round"/><path d="M136,406 C671,2 713,730 669,246"
      stroke="#e0d5c7" stroke-width="21.20931407735619" fill="none" opacity="0.40" stroke-linecap="round"/><path d="M612,774 C678,779 240,12 663,127"
      stroke="#e0d5c7" stroke-width="15.972202315900663" fill="none" opacity="0.23" stroke-linecap="round"/><path d="M665,131 C672,453 317,281 227,54"
      stroke="#3d1f10" stroke-width="22.940109879654003" fill="none" opacity="0.43" stroke-linecap="round"/><path d="M171,728 C257,579 786,331 362,743"
      stroke="#c9a96e" stroke-width="10.982186592167418" fill="none" opacity="0.22" stroke-linecap="round"/><circle cx="384" cy="716" r="213" fill="#e0d5c7" opacity="0.24"/><circle cx="68" cy="151" r="106" fill="#70503d" opacity="0.18"/><circle cx="630" cy="273" r="128" fill="#c9a96e" opacity="0.15"/><line x1="625" y1="314" x2="667" y2="77" stroke="#aa8545" stroke-width="4.9" opacity="0.16" stroke-linecap="round"/><line x1="679" y1="463" x2="43" y2="134" stroke="#e0d5c7" stroke-width="8.9" opacity="0.16" stroke-linecap="round"/><line x1="309" y1="639" x2="263" y2="403" stroke="#aa8545" stroke-width="3.0" opacity="0.07" stroke-linecap="round"/><line x1="167" y1="184" x2="790" y2="220" stroke="#70503d" stroke-width="5.2" opacity="0.16" stroke-linecap="round"/><line x1="247" y1="424" x2="401" y2="338" stroke="#aa8545" stroke-width="2.8" opacity="0.14" stroke-linecap="round"/><line x1="168" y1="213" x2="617" y2="190" stroke="#8f7060" stroke-width="9.0" opacity="0.09" stroke-linecap="round"/><line x1="732" y1="531" x2="555" y2="182" stroke="#e0d5c7" stroke-width="4.2" opacity="0.16" stroke-linecap="round"/><line x1="420" y1="493" x2="398" y2="33" stroke="#c9a96e" stroke-width="2.9" opacity="0.15" stroke-linecap="round"/><text x="400" y="420" text-anchor="middle" font-family="Georgia, 'Times New Roman', serif" font-size="64" fill="#1f0a02" opacity="0.12">4</text></svg>