<svg xmlns="http://www.w3.org/2000/svg" viewBox="0 0 800 800" width="800" height="800"><defs>
    <linearGradient id="bg-r-17" x1="0" y1="0" x2="0.5" y2="1">
      <stop offset="0%" stop-color="#e7ded3"/>
      <stop offset="100%" stop-color="#faf8f4"/>
    </linearGradient>
  </defs>
  <rect width="800" height="800" fill="url(#bg-r-17)"/><polygon points="206,424 208,286 258,179 444,157 585,327 415,487" fill="#e0d5c7" opacity="0.10"/><polygon points="278,395 459,264 593,392 537,538 366,582" fill="#70503d" opacity="0.28"/><polygon points="194,599 83,355 254,226 427,407" fill="#1f0a02" opacity="0.19"/><polygon points="533,294 683,350 673,495 564,662 393,554 380,336" fill="#8a6a30" opacity="0.22"/><polygon points="314,468 479,536 354,645" fill="#3d1f10" opacity="0.20"/><polygon points="822,521 645,704 468,604 417,459 491,242 703,353" fill="#e0d5c7" opacity="0.24"/><line x1="188" y1="429" x2="712" y2="319" stroke="#e0d5c7" stroke-width="3.2777434590065324" opacity="0.12"/><line x1="542" y1="756" x2="154" y2="755" stroke="#e0d5c7" stroke-width="2.55947294184889" opacity="0.10"/><line x1="550" y1="466" x2="272" y2="415" stroke="#8a6a30" stroke-width="3.3172172050152136" opacity="0.28"/><line x1="659" y1="284" x2="371" y2="160" stroke="#aa8545" stroke-width="2.169352748123326" opacity="0.12"/><line x1="83" y1="783" x2="130" y2="552" stroke="#e0d5c7" stroke-width="2.2986723420197817" opacity="0.25"/><line x1="476" y1="108" x2="231" y2="233" stroke="#70503d" stroke-width="2.2550248594535747" opacity="0.23"/><line x1="54" y1="241" x2="301" y2="467" stroke="#1f0a02" stroke-width="2.291631511218503" opacity="0.14"/><line x1="120" y1="526" x2="69" y2="62" stroke="#aa8545" stroke-width="2.4117833105025657" opacity="0.16"/><line x1="225" y1="634" x2="546" y2="234" stroke="#8a6a30" stroke-width="1.5949806674336835" opacity="0.25"/><line x1="224" y1="400" x2="603" y2="33" stroke="#1f0a02" stroke-width="2.671449032771819" opacity="0.28"/><rect x="311" y="384" width="82" height="124" fill="#e0d5c7" opacity="0.19" transform="rotate(13 351 447)"/><rect x="274" y="380" width="154" height="133" fill="#1f0a02" opacity="0.13" transform="rotate(20 351 447)"/><rect x="286" y="371" width="130" height="151" fill="#aa8545" opacity="0.12" transform="rotate(28 351 447)"/><text x="400" y="420" text-anchor="middle" font-family="Georgia, 'Times New Roman', serif" font-size="64" fill="#1f0a02" opacity="0.12">17</text></svg>