<svg xmlns="http://www.w3.org/2000/svg" viewBox="0 0 800 800" width="800" height="800"><defs>
    <radialGradient id="bg-f-25" cx="50%" cy="50%" r="60%">
      <stop offset="0%" stop-color="#faf8f4"/>
      <stop offset="100%" stop-color="#e0d5c7"/>
    </radialGradient>
    <radialGradient id="rad-f-25" cx="50%" cy="50%" r="50%">
      <stop offset="0%" stop-color="#faf8f4" stop-opacity="0.4"/>
      <stop offset="70%" stop-color="#70503d" stop-opacity="0.08"/>
      <stop offset="100%" stop-color="#1f0a02" stop-opacity="0.15"/>
    </radialGradient>
  </defs>
  <rect width="800" height="800" fill="url(#bg-f-25)"/><circle cx="400" cy="400" r="280" fill="none" stroke="#70503d" stroke-width="1" opacity="0.2"/><circle cx="400" cy="400" r="200" fill="url(#rad-f-25)"/><circle cx="400" cy="400" r="140" fill="none" stroke="#aa8545" stroke-width="0.5" opacity="0.3"/><circle cx="400" cy="400" r="67" fill="none" stroke="#1f0a02" stroke-width="0.7453292508100432" opacity="0.13"/><circle cx="400" cy="400" r="107" fill="none" stroke="#70503d" stroke-width="1.0120233711898545" opacity="0.11"/><circle cx="400" cy="400" r="156" fill="none" stroke="#8f7060" stroke-width="1.3836877344955576" opacity="0.11"/><circle cx="400" cy="400" r="186" fill="none" stroke="#8f7060" stroke-width="0.7557840517310277" opacity="0.09"/><circle cx="400" cy="400" r="240" fill="none" stroke="#e0d5c7" stroke-width="0.870004539722581" opacity="0.14"/><circle cx="400" cy="400" r="282" fill="none" stroke="#3d1f10" stroke-width="2.0785628339076068" opacity="0.08"/><line x1="460" y1="400" x2="660" y2="400" stroke="#70503d" stroke-width="0.5" opacity="0.15"/><line x1="437" y1="447" x2="562" y2="603" stroke="#70503d" stroke-width="0.5" opacity="0.15"/><line x1="387" y1="458" x2="342" y2="653" stroke="#70503d" stroke-width="0.5" opacity="0.15"/><line x1="346" y1="426" x2="166" y2="513" stroke="#70503d" stroke-width="0.5" opacity="0.15"/><line x1="346" y1="374" x2="166" y2="287" stroke="#70503d" stroke-width="0.5" opacity="0.15"/><line x1="387" y1="342" x2="342" y2="147" stroke="#70503d" stroke-width="0.5" opacity="0.15"/><line x1="437" y1="353" x2="562" y2="197" stroke="#70503d" stroke-width="0.5" opacity="0.15"/><circle cx="650" cy="797" r="1.6" fill="#aa8545" opacity="0.05"/><circle cx="72" cy="671" r="2.4" fill="#3d1f10" opacity="0.06"/><circle cx="404" cy="442" r="3.4" fill="#e0d5c7" opacity="0.05"/><circle cx="341" cy="393" r="4.6" fill="#3d1f10" opacity="0.13"/><circle cx="435" cy="538" r="3.9" fill="#70503d" opacity="0.09"/><circle cx="29" cy="606" r="2.6" fill="#e0d5c7" opacity="0.09"/><circle cx="278" cy="337" r="2.8" fill="#e0d5c7" opacity="0.04"/><circle cx="228" cy="442" r="6.4" fill="#8f7060" opacity="0.05"/><circle cx="153" cy="474" r="1.3" fill="#1f0a02" opacity="0.11"/><circle cx="65" cy="314" r="2.2" fill="#8f7060" opacity="0.05"/><circle cx="339" cy="689" r="4.6" fill="#e0d5c7" opacity="0.07"/><circle cx="24" cy="730" r="4.9" fill="#e0d5c7" opacity="0.08"/><circle cx="74" cy="225" r="6.0" fill="#e0d5c7" opacity="0.06"/><circle cx="184" cy="236" r="3.0" fill="#aa8545" opacity="0.11"/><circle cx="724" cy="175" r="3.0" fill="#3d1f10" opacity="0.11"/><circle cx="109" cy="468" r="5.3" fill="#70503d" opacity="0.10"/><circle cx="233" cy="595" r="3.1" fill="#70503d" opacity="0.06"/><circle cx="541" cy="134" r="5.4" fill="#aa8545" opacity="0.14"/><circle cx="103" cy="384" r="6.8" fill="#70503d" opacity="0.12"/><circle cx="165" cy="148" r="3.3" fill="#aa8545" opacity="0.12"/><circle cx="177" cy="574" r="4.6" fill="#8f7060" opacity="0.09"/><circle cx="272" cy="712" r="4.5" fill="#8f7060" opacity="0.12"/><circle cx="264" cy="148" r="1.3" fill="#aa8545" opacity="0.05"/><circle cx="565" cy="597" r="4.1" fill="#3d1f10" opacity="0.05"/><circle cx="534" cy="352" r="5.1" fill="#70503d" opacity="0.05"/><circle cx="496" cy="408" r="1.6" fill="#1f0a02" opacity="0.13"/><circle cx="131" cy="772" r="6.9" fill="#8f7060" opacity="0.05"/><circle cx="88" cy="516" r="6.5" fill="#e0d5c7" opacity="0.13"/><circle cx="10" cy="652" r="5.0" fill="#3d1f10" opacity="0.12"/><circle cx="88" cy="610" r="1.1" fill="#8f7060" opacity="0.08"/><circle cx="107" cy="180" r="5.0" fill="#70503d" opacity="0.09"/><circle cx="47" cy="288" r="3.6" fill="#1f0a02" opacity="0.08"/><circle cx="259" cy="4" r="4.2" fill="#8f7060" opacity="0.06"/><circle cx="315" cy="557" r="4.2" fill="#3d1f10" opacity="0.10"/><circle cx="231" cy="385" r="1.7" fill="#1f0a02" opacity="0.14"/><circle cx="209" cy="197" r="2.0" fill="#8f7060" opacity="0.11"/><circle cx="501" cy="784" r="7.0" fill="#e0d5c7" opacity="0.11"/><circle cx="150" cy="615" r="1.5" fill="#70503d" opacity="0.10"/><circle cx="300" cy="781" r="6.0" fill="#1f0a02" opacity="0.12"/><circle cx="106" cy="37" r="6.8" fill="#3d1f10" opacity="0.06"/><rect width="800" height="800" fill="url(#rad-f-25)" opacity="0.3"/><text x="400" y="420" text-anchor="middle" font-family="Georgia, 'Times New Roman', serif" font-size="64" fill="#1f0a02" opacity="0.12">25</text></svg>