<svg xmlns="http://www.w3.org/2000/svg" viewBox="0 0 800 800" width="800" height="800"><defs>
    <linearGradient id="bg-r-15" x1="0" y1="0" x2="0.5" y2="1">
      <stop offset="0%" stop-color="#e7ded3"/>
      <stop offset="100%" stop-color="#faf8f4"/>
    </linearGradient>
  </defs>
  <rect width="800" height="800" fill="url(#bg-r-15)"/><polygon points="308,160 448,219 444,374 258,363 204,255" fill="#3d1f10" opacity="0.18"/><polygon points="262,15 585,243 322,502" fill="#e0d5c7" opacity="0.21"/><polygon points="673,517 619,643 436,598 381,504 478,401 616,369" fill="#e0d5c7" opacity="0.22"/><polygon points="239,279 282,359 262,416 197,446 154,387 159,306" fill="#3d1f10" opacity="0.22"/><polygon points="344,339 272,305 294,232 363,215 388,284" fill="#8a6a30" opacity="0.35"/><polygon points="336,406 665,452 594,701 303,676" fill="#8a6a30" opacity="0.34"/><line x1="202" y1="338" x2="589" y2="755" stroke="#70503d" stroke-width="3.734397294683752" opacity="0.20"/><line x1="4" y1="724" x2="8" y2="526" stroke="#aa8545" stroke-width="3.014638890525921" opacity="0.22"/><line x1="543" y1="367" x2="673" y2="223" stroke="#70503d" stroke-width="1.2030746156378413" opacity="0.18"/><line x1="553" y1="263" x2="534" y2="15" stroke="#70503d" stroke-width="3.798215378819234" opacity="0.21"/><line x1="428" y1="510" x2="497" y2="314" stroke="#aa8545" stroke-width="3.3146297198856525" opacity="0.19"/><line x1="262" y1="682" x2="656" y2="142" stroke="#8a6a30" stroke-width="2.901698426717611" opacity="0.14"/><line x1="759" y1="201" x2="471" y2="354" stroke="#8a6a30" stroke-width="1.5316134388852989" opacity="0.24"/><line x1="221" y1="492" x2="341" y2="605" stroke="#aa8545" stroke-width="2.2041001498737374" opacity="0.27"/><line x1="616" y1="238" x2="386" y2="277" stroke="#aa8545" stroke-width="2.9562630168686277" opacity="0.18"/><line x1="510" y1="516" x2="245" y2="353" stroke="#70503d" stroke-width="1.0613702261460667" opacity="0.26"/><rect x="369" y="326" width="126" height="135" fill="#8a6a30" opacity="0.17" transform="rotate(17 432 393)"/><rect x="410" y="353" width="43" height="81" fill="#e0d5c7" opacity="0.15" transform="rotate(28 432 393)"/><rect x="366" y="326" width="131" height="135" fill="#8a6a30" opacity="0.17" transform="rotate(-4 432 393)"/><text x="400" y="420" text-anchor="middle" font-family="Georgia, 'Times New Roman', serif" font-size="64" fill="#1f0a02" opacity="0.12">15</text></svg>