<svg xmlns="http://www.w3.org/2000/svg" viewBox="0 0 800 800" width="800" height="800"><defs>
    <radialGradient id="bg-f-29" cx="50%" cy="50%" r="60%">
      <stop offset="0%" stop-color="#faf8f4"/>
      <stop offset="100%" stop-color="#e0d5c7"/>
    </radialGradient>
    <radialGradient id="rad-f-29" cx="50%" cy="50%" r="50%">
      <stop offset="0%" stop-color="#faf8f4" stop-opacity="0.4"/>
      <stop offset="70%" stop-color="#70503d" stop-opacity="0.08"/>
      <stop offset="100%" stop-color="#1f0a02" stop-opacity="0.15"/>
    </radialGradient>
  </defs>
  <rect width="800" height="800" fill="url(#bg-f-29)"/><circle cx="400" cy="400" r="280" fill="none" stroke="#70503d" stroke-width="1" opacity="0.2"/><circle cx="400" cy="400" r="200" fill="url(#rad-f-29)"/><circle cx="400" cy="400" r="140" fill="none" stroke="#aa8545" stroke-width="0.5" opacity="0.3"/><circle cx="400" cy="400" r="69" fill="none" stroke="#70503d" stroke-width="1.1045819312376732" opacity="0.12"/><circle cx="400" cy="400" r="107" fill="none" stroke="#8f7060" stroke-width="2.053947111176278" opacity="0.13"/><circle cx="400" cy="400" r="152" fill="none" stroke="#8f7060" stroke-width="0.7250777717913294" opacity="0.10"/><circle cx="400" cy="400" r="194" fill="none" stroke="#70503d" stroke-width="1.1967095003432684" opacity="0.13"/><circle cx="400" cy="400" r="246" fill="none" stroke="#3d1f10" stroke-width="0.9292052662272055" opacity="0.13"/><circle cx="400" cy="400" r="292" fill="none" stroke="#8f7060" stroke-width="2.17113288740733" opacity="0.07"/><line x1="460" y1="400" x2="660" y2="400" stroke="#70503d" stroke-width="0.5" opacity="0.15"/><line x1="437" y1="447" x2="562" y2="603" stroke="#70503d" stroke-width="0.5" opacity="0.15"/><line x1="387" y1="458" x2="342" y2="653" stroke="#70503d" stroke-width="0.5" opacity="0.15"/><line x1="346" y1="426" x2="166" y2="513" stroke="#70503d" stroke-width="0.5" opacity="0.15"/><line x1="346" y1="374" x2="166" y2="287" stroke="#70503d" stroke-width="0.5" opacity="0.15"/><line x1="387" y1="342" x2="342" y2="147" stroke="#70503d" stroke-width="0.5" opacity="0.15"/><line x1="437" y1="353" x2="562" y2="197" stroke="#70503d" stroke-width="0.5" opacity="0.15"/><circle cx="210" cy="797" r="4.8" fill="#8f7060" opacity="0.08"/><circle cx="531" cy="554" r="3.3" fill="#3d1f10" opacity="0.08"/><circle cx="629" cy="769" r="4.5" fill="#1f0a02" opacity="0.10"/><circle cx="364" cy="8" r="2.3" fill="#8f7060" opacity="0.13"/><circle cx="152" cy="112" r="5.8" fill="#1f0a02" opacity="0.08"/><circle cx="322" cy="767" r="6.6" fill="#70503d" opacity="0.08"/><circle cx="258" cy="711" r="1.9" fill="#aa8545" opacity="0.05"/><circle cx="168" cy="705" r="6.0" fill="#8f7060" opacity="0.10"/><circle cx="433" cy="37" r="2.6" fill="#8f7060" opacity="0.07"/><circle cx="11" cy="141" r="2.4" fill="#1f0a02" opacity="0.05"/><circle cx="329" cy="671" r="6.0" fill="#70503d" opacity="0.07"/><circle cx="220" cy="463" r="3.6" fill="#3d1f10" opacity="0.13"/><circle cx="213" cy="644" r="6.3" fill="#e0d5c7" opacity="0.11"/><circle cx="501" cy="626" r="1.4" fill="#aa8545" opacity="0.07"/><circle cx="552" cy="395" r="5.0" fill="#3d1f10" opacity="0.13"/><circle cx="543" cy="126" r="5.3" fill="#aa8545" opacity="0.12"/><circle cx="430" cy="114" r="2.0" fill="#1f0a02" opacity="0.09"/><circle cx="275" cy="283" r="6.3" fill="#aa8545" opacity="0.13"/><circle cx="311" cy="573" r="3.2" fill="#1f0a02" opacity="0.13"/><circle cx="607" cy="108" r="1.0" fill="#3d1f10" opacity="0.07"/><circle cx="110" cy="538" r="3.0" fill="#e0d5c7" opacity="0.07"/><circle cx="156" cy="26" r="4.9" fill="#1f0a02" opacity="0.12"/><circle cx="466" cy="652" r="5.9" fill="#8f7060" opacity="0.04"/><circle cx="303" cy="180" r="1.2" fill="#1f0a02" opacity="0.08"/><circle cx="11" cy="633" r="6.5" fill="#8f7060" opacity="0.06"/><circle cx="479" cy="761" r="7.0" fill="#1f0a02" opacity="0.09"/><circle cx="568" cy="287" r="4.3" fill="#aa8545" opacity="0.12"/><circle cx="550" cy="726" r="6.9" fill="#8f7060" opacity="0.11"/><circle cx="523" cy="308" r="3.5" fill="#8f7060" opacity="0.06"/><circle cx="38" cy="771" r="4.2" fill="#70503d" opacity="0.11"/><circle cx="476" cy="657" r="5.6" fill="#aa8545" opacity="0.07"/><circle cx="503" cy="302" r="2.1" fill="#3d1f10" opacity="0.09"/><circle cx="684" cy="645" r="4.0" fill="#70503d" opacity="0.05"/><circle cx="334" cy="166" r="5.6" fill="#1f0a02" opacity="0.06"/><circle cx="108" cy="607" r="2.3" fill="#aa8545" opacity="0.09"/><circle cx="403" cy="549" r="2.4" fill="#aa8545" opacity="0.11"/><circle cx="101" cy="462" r="4.6" fill="#3d1f10" opacity="0.12"/><circle cx="686" cy="554" r="2.0" fill="#1f0a02" opacity="0.07"/><circle cx="444" cy="746" r="2.9" fill="#e0d5c7" opacity="0.14"/><circle cx="635" cy="587" r="7.0" fill="#aa8545" opacity="0.13"/><rect width="800" height="800" fill="url(#rad-f-29)" opacity="0.3"/><text x="400" y="420" text-anchor="middle" font-family="Georgia, 'Times New Roman', serif" font-size="64" fill="#1f0a02" opacity="0.12">29</text></svg>