<svg xmlns="http://www.w3.org/2000/svg" viewBox="0 0 800 800" width="800" height="800"><defs>
    <linearGradient id="bg-x-31" x1="0" y1="0" x2="1" y2="0.8">
      <stop offset="0%" stop-color="#faf8f4"/>
      <stop offset="50%" stop-color="#e7ded3"/>
      <stop offset="100%" stop-color="#faf8f4"/>
    </linearGradient>
  </defs>
  <rect width="800" height="800" fill="url(#bg-x-31)"/><path d="M100,386 C380,532 587,549 720,436" stroke="#70503d" stroke-width="4.296656298727409" fill="none" opacity="0.25" stroke-linecap="round"/><path d="M15,209 C365,463 404,128 630,428" stroke="#aa8545" stroke-width="13.63866529859478" fill="none" opacity="0.19" stroke-linecap="round"/><path d="M67,248 C207,537 535,716 777,574" stroke="#e0d5c7" stroke-width="12.506718677940516" fill="none" opacity="0.22" stroke-linecap="round"/><rect x="576" y="519" width="237" height="183" fill="#8f7060" opacity="0.10" rx="2" transform="rotate(22 694 610)"/><rect x="151" y="485" width="152" height="147" fill="#1f0a02" opacity="0.13" rx="2" transform="rotate(2 227 558)"/><rect x="205" y="399" width="259" height="208" fill="#70503d" opacity="0.20" rx="2" transform="rotate(-14 335 503)"/><rect x="112" y="259" width="145" height="100" fill="#e0d5c7" opacity="0.08" rx="2" transform="rotate(13 185 309)"/><circle cx="206" cy="272" r="40" fill="none" stroke="#e0d5c7" stroke-width="1.6340070726666664" opacity="0.21"/><circle cx="568" cy="204" r="114" fill="none" stroke="#e0d5c7" stroke-width="1.6136455900162883" opacity="0.17"/><circle cx="539" cy="220" r="105" fill="none" stroke="#e0d5c7" stroke-width="2.961263642144635" opacity="0.11"/><line x1="0" y1="0" x2="0" y2="800" stroke="#70503d" stroke-width="0.3" opacity="0.06"/><line x1="80" y1="0" x2="80" y2="800" stroke="#70503d" stroke-width="0.3" opacity="0.06"/><line x1="160" y1="0" x2="160" y2="800" stroke="#70503d" stroke-width="0.3" opacity="0.06"/><line x1="240" y1="0" x2="240" y2="800" stroke="#70503d" stroke-width="0.3" opacity="0.06"/><line x1="320" y1="0" x2="320" y2="800" stroke="#70503d" stroke-width="0.3" opacity="0.06"/><line x1="400" y1="0" x2="400" y2="800" stroke="#70503d" stroke-width="0.3" opacity="0.06"/><line x1="480" y1="0" x2="480" y2="800" stroke="#70503d" stroke-width="0.3" opacity="0.06"/><line x1="560" y1="0" x2="560" y2="800" stroke="#70503d" stroke-width="0.3" opacity="0.06"/><line x1="640" y1="0" x2="640" y2="800" stroke="#70503d" stroke-width="0.3" opacity="0.06"/><line x1="720" y1="0" x2="720" y2="800" stroke="#70503d" stroke-width="0.3" opacity="0.06"/><line x1="800" y1="0" x2="800" y2="800" stroke="#70503d" stroke-width="0.3" opacity="0.06"/><line x1="0" y1="0" x2="800" y2="0" stroke="#70503d" stroke-width="0.3" opacity="0.06"/><line x1="0" y1="80" x2="800" y2="80" stroke="#70503d" stroke-width="0.3" opacity="0.06"/><line x1="0" y1="160" x2="800" y2="160" stroke="#70503d" stroke-width="0.3" opacity="0.06"/><line x1="0" y1="240" x2="800" y2="240" stroke="#70503d" stroke-width="0.3" opacity="0.06"/><line x1="0" y1="320" x2="800" y2="320" stroke="#70503d" stroke-width="0.3" opacity="0.06"/><line x1="0" y1="400" x2="800" y2="400" stroke="#70503d" stroke-width="0.3" opacity="0.06"/><line x1="0" y1="480" x2="800" y2="480" stroke="#70503d" stroke-width="0.3" opacity="0.06"/><line x1="0" y1="560" x2="800" y2="560" stroke="#70503d" stroke-width="0.3" opacity="0.06"/><line x1="0" y1="640" x2="800" y2="640" stroke="#70503d" stroke-width="0.3" opacity="0.06"/><line x1="0" y1="720" x2="800" y2="720" stroke="#70503d" stroke-width="0.3" opacity="0.06"/><line x1="0" y1="800" x2="800" y2="800" stroke="#70503d" stroke-width="0.3" opacity="0.06"/><text x="400" y="420" text-anchor="middle" font-family="Georgia, 'Times New Roman', serif" font-size="64" fill="#1f0a02" opacity="0.12">31</text></svg>