<svg xmlns="http://www.w3.org/2000/svg" viewBox="0 0 800 800" width="800" height="800"><defs>
    <radialGradient id="bg-f-26" cx="50%" cy="50%" r="60%">
      <stop offset="0%" stop-color="#faf8f4"/>
      <stop offset="100%" stop-color="#e0d5c7"/>
    </radialGradient>
    <radialGradient id="rad-f-26" cx="50%" cy="50%" r="50%">
      <stop offset="0%" stop-color="#faf8f4" stop-opacity="0.4"/>
      <stop offset="70%" stop-color="#70503d" stop-opacity="0.08"/>
      <stop offset="100%" stop-color="#1f0a02" stop-opacity="0.15"/>
    </radialGradient>
  </defs>
  <rect width="800" height="800" fill="url(#bg-f-26)"/><circle cx="400" cy="400" r="280" fill="none" stroke="#70503d" stroke-width="1" opacity="0.2"/><circle cx="400" cy="400" r="200" fill="url(#rad-f-26)"/><circle cx="400" cy="400" r="140" fill="none" stroke="#aa8545" stroke-width="0.5" opacity="0.3"/><circle cx="400" cy="400" r="67" fill="none" stroke="#1f0a02" stroke-width="0.8351424209169507" opacity="0.13"/><circle cx="400" cy="400" r="102" fill="none" stroke="#aa8545" stroke-width="1.2725043061864603" opacity="0.09"/><circle cx="400" cy="400" r="155" fill="none" stroke="#8f7060" stroke-width="2.2190352442851617" opacity="0.06"/><circle cx="400" cy="400" r="203" fill="none" stroke="#1f0a02" stroke-width="2.36601541458258" opacity="0.08"/><circle cx="400" cy="400" r="231" fill="none" stroke="#1f0a02" stroke-width="0.8848047213487371" opacity="0.08"/><circle cx="400" cy="400" r="289" fill="none" stroke="#3d1f10" stroke-width="1.1017053468168763" opacity="0.12"/><line x1="460" y1="400" x2="660" y2="400" stroke="#70503d" stroke-width="0.5" opacity="0.15"/><line x1="437" y1="447" x2="562" y2="603" stroke="#70503d" stroke-width="0.5" opacity="0.15"/><line x1="387" y1="458" x2="342" y2="653" stroke="#70503d" stroke-width="0.5" opacity="0.15"/><line x1="346" y1="426" x2="166" y2="513" stroke="#70503d" stroke-width="0.5" opacity="0.15"/><line x1="346" y1="374" x2="166" y2="287" stroke="#70503d" stroke-width="0.5" opacity="0.15"/><line x1="387" y1="342" x2="342" y2="147" stroke="#70503d" stroke-width="0.5" opacity="0.15"/><line x1="437" y1="353" x2="562" y2="197" stroke="#70503d" stroke-width="0.5" opacity="0.15"/><circle cx="740" cy="797" r="6.9" fill="#aa8545" opacity="0.08"/><circle cx="587" cy="441" r="4.1" fill="#aa8545" opacity="0.12"/><circle cx="260" cy="524" r="5.2" fill="#8f7060" opacity="0.09"/><circle cx="547" cy="697" r="4.1" fill="#aa8545" opacity="0.11"/><circle cx="164" cy="431" r="1.4" fill="#aa8545" opacity="0.11"/><circle cx="703" cy="247" r="3.6" fill="#aa8545" opacity="0.06"/><circle cx="673" cy="30" r="4.1" fill="#e0d5c7" opacity="0.09"/><circle cx="13" cy="108" r="1.8" fill="#8f7060" opacity="0.11"/><circle cx="223" cy="364" r="6.1" fill="#70503d" opacity="0.12"/><circle cx="451" cy="71" r="2.3" fill="#3d1f10" opacity="0.05"/><circle cx="736" cy="684" r="6.5" fill="#aa8545" opacity="0.12"/><circle cx="473" cy="664" r="4.5" fill="#1f0a02" opacity="0.09"/><circle cx="109" cy="329" r="3.1" fill="#aa8545" opacity="0.04"/><circle cx="63" cy="534" r="2.6" fill="#70503d" opacity="0.10"/><circle cx="81" cy="630" r="5.0" fill="#1f0a02" opacity="0.07"/><circle cx="18" cy="582" r="3.8" fill="#1f0a02" opacity="0.06"/><circle cx="82" cy="75" r="5.8" fill="#8f7060" opacity="0.07"/><circle cx="275" cy="171" r="4.1" fill="#aa8545" opacity="0.06"/><circle cx="555" cy="431" r="4.4" fill="#1f0a02" opacity="0.05"/><circle cx="75" cy="538" r="1.2" fill="#1f0a02" opacity="0.06"/><circle cx="760" cy="565" r="5.7" fill="#3d1f10" opacity="0.06"/><circle cx="443" cy="740" r="6.1" fill="#aa8545" opacity="0.10"/><circle cx="115" cy="474" r="3.9" fill="#8f7060" opacity="0.10"/><circle cx="299" cy="493" r="6.4" fill="#1f0a02" opacity="0.11"/><circle cx="203" cy="622" r="7.0" fill="#e0d5c7" opacity="0.05"/><circle cx="292" cy="296" r="5.9" fill="#70503d" opacity="0.12"/><circle cx="41" cy="451" r="4.8" fill="#aa8545" opacity="0.07"/><circle cx="603" cy="568" r="3.6" fill="#1f0a02" opacity="0.10"/><circle cx="138" cy="166" r="6.1" fill="#aa8545" opacity="0.13"/><circle cx="476" cy="250" r="6.4" fill="#3d1f10" opacity="0.06"/><circle cx="400" cy="700" r="5.1" fill="#3d1f10" opacity="0.09"/><circle cx="561" cy="492" r="3.2" fill="#70503d" opacity="0.11"/><circle cx="365" cy="164" r="2.7" fill="#3d1f10" opacity="0.06"/><circle cx="520" cy="259" r="4.5" fill="#aa8545" opacity="0.09"/><circle cx="401" cy="241" r="4.8" fill="#8f7060" opacity="0.08"/><circle cx="58" cy="685" r="6.6" fill="#aa8545" opacity="0.06"/><circle cx="201" cy="303" r="3.4" fill="#70503d" opacity="0.08"/><circle cx="284" cy="800" r="4.6" fill="#8f7060" opacity="0.04"/><circle cx="536" cy="172" r="5.2" fill="#e0d5c7" opacity="0.07"/><circle cx="238" cy="775" r="5.3" fill="#1f0a02" opacity="0.05"/><rect width="800" height="800" fill="url(#rad-f-26)" opacity="0.3"/><text x="400" y="420" text-anchor="middle" font-family="Georgia, 'Times New Roman', serif" font-size="64" fill="#1f0a02" opacity="0.12">26</text></svg>