<svg xmlns="http://www.w3.org/2000/svg" viewBox="0 0 800 800" width="800" height="800"><defs>
    <linearGradient id="bg-m-10" x1="0" y1="0" x2="1" y2="1">
      <stop offset="0%" stop-color="#faf8f4"/>
      <stop offset="100%" stop-color="#e7ded3"/>
    </linearGradient>
  </defs>
  <rect width="800" height="800" fill="url(#bg-m-10)"/><path d="M789,337 C84,528 355,122 78,387"
      stroke="#70503d" stroke-width="12.455520783043951" fill="none" opacity="0.45" stroke-linecap="round"/><path d="M740,214 C478,5 183,626 73,214"
      stroke="#3d1f10" stroke-width="7.023285188733865" fill="none" opacity="0.43" stroke-linecap="round"/><path d="M729,735 C494,749 201,30 456,717"
      stroke="#8f7060" stroke-width="23.930505799064882" fill="none" opacity="0.36" stroke-linecap="round"/><path d="M462,728 C480,332 393,302 167,136"
      stroke="#3d1f10" stroke-width="11.350274694478394" fill="none" opacity="0.49" stroke-linecap="round"/><path d="M28,219 C643,648 765,427 106,656"
      stroke="#aa8545" stroke-width="11.45546648973177" fill="none" opacity="0.33" stroke-linecap="round"/><circle cx="161" cy="590" r="213" fill="#aa8545" opacity="0.21"/><circle cx="169" cy="377" r="245" fill="#e0d5c7" opacity="0.15"/><circle cx="375" cy="282" r="100" fill="#c9a96e" opacity="0.08"/><line x1="363" y1="784" x2="467" y2="591" stroke="#3d1f10" stroke-width="9.2" opacity="0.14" stroke-linecap="round"/><line x1="498" y1="357" x2="508" y2="734" stroke="#aa8545" stroke-width="7.2" opacity="0.08" stroke-linecap="round"/><line x1="371" y1="796" x2="257" y2="607" stroke="#3d1f10" stroke-width="8.5" opacity="0.09" stroke-linecap="round"/><line x1="418" y1="59" x2="376" y2="151" stroke="#3d1f10" stroke-width="10.0" opacity="0.12" stroke-linecap="round"/><line x1="618" y1="661" x2="603" y2="44" stroke="#aa8545" stroke-width="3.9" opacity="0.09" stroke-linecap="round"/><line x1="20" y1="132" x2="743" y2="476" stroke="#3d1f10" stroke-width="7.4" opacity="0.08" stroke-linecap="round"/><line x1="629" y1="128" x2="188" y2="56" stroke="#aa8545" stroke-width="7.4" opacity="0.12" stroke-linecap="round"/><line x1="650" y1="433" x2="195" y2="84" stroke="#aa8545" stroke-width="4.3" opacity="0.10" stroke-linecap="round"/><text x="400" y="420" text-anchor="middle" font-family="Georgia, 'Times New Roman', serif" font-size="64" fill="#1f0a02" opacity="0.12">10</text></svg>