<svg xmlns="http://www.w3.org/2000/svg" viewBox="0 0 800 800" width="800" height="800"><defs>
    <linearGradient id="bg-m-7" x1="0" y1="0" x2="1" y2="1">
      <stop offset="0%" stop-color="#faf8f4"/>
      <stop offset="100%" stop-color="#e7ded3"/>
    </linearGradient>
  </defs>
  <rect width="800" height="800" fill="url(#bg-m-7)"/><path d="M232,396 C59,50 568,405 135,191"
      stroke="#c9a96e" stroke-width="7.918864544405476" fill="none" opacity="0.43" stroke-linecap="round"/><path d="M38,310 C174,4 448,278 371,230"
      stroke="#c9a96e" stroke-width="14.11629963304503" fill="none" opacity="0.24" stroke-linecap="round"/><path d="M270,354 C186,764 221,421 560,22"
      stroke="#3d1f10" stroke-width="9.951354052826161" fill="none" opacity="0.29" stroke-linecap="round"/><path d="M164,30 C176,792 755,691 197,95"
      stroke="#3d1f10" stroke-width="17.145192287066198" fill="none" opacity="0.28" stroke-linecap="round"/><path d="M500,73 C450,214 375,779 234,299"
      stroke="#70503d" stroke-width="11.218826540949593" fill="none" opacity="0.45" stroke-linecap="round"/><circle cx="273" cy="253" r="113" fill="#70503d" opacity="0.23"/><circle cx="519" cy="664" r="275" fill="#3d1f10" opacity="0.26"/><circle cx="102" cy="677" r="114" fill="#aa8545" opacity="0.12"/><line x1="94" y1="149" x2="167" y2="334" stroke="#8f7060" stroke-width="7.1" opacity="0.15" stroke-linecap="round"/><line x1="589" y1="10" x2="275" y2="434" stroke="#70503d" stroke-width="4.0" opacity="0.12" stroke-linecap="round"/><line x1="740" y1="717" x2="260" y2="105" stroke="#8f7060" stroke-width="5.8" opacity="0.08" stroke-linecap="round"/><line x1="693" y1="121" x2="583" y2="186" stroke="#c9a96e" stroke-width="7.6" opacity="0.14" stroke-linecap="round"/><line x1="432" y1="543" x2="502" y2="191" stroke="#aa8545" stroke-width="7.3" opacity="0.18" stroke-linecap="round"/><line x1="94" y1="572" x2="280" y2="733" stroke="#70503d" stroke-width="4.2" opacity="0.09" stroke-linecap="round"/><line x1="280" y1="330" x2="772" y2="519" stroke="#70503d" stroke-width="9.8" opacity="0.08" stroke-linecap="round"/><line x1="535" y1="463" x2="696" y2="59" stroke="#e0d5c7" stroke-width="3.6" opacity="0.12" stroke-linecap="round"/><text x="400" y="420" text-anchor="middle" font-family="Georgia, 'Times New Roman', serif" font-size="64" fill="#1f0a02" opacity="0.12">7</text></svg>