<svg xmlns="http://www.w3.org/2000/svg" viewBox="0 0 800 800" width="800" height="800"><defs>
    <radialGradient id="bg-f-27" cx="50%" cy="50%" r="60%">
      <stop offset="0%" stop-color="#faf8f4"/>
      <stop offset="100%" stop-color="#e0d5c7"/>
    </radialGradient>
    <radialGradient id="rad-f-27" cx="50%" cy="50%" r="50%">
      <stop offset="0%" stop-color="#faf8f4" stop-opacity="0.4"/>
      <stop offset="70%" stop-color="#70503d" stop-opacity="0.08"/>
      <stop offset="100%" stop-color="#1f0a02" stop-opacity="0.15"/>
    </radialGradient>
  </defs>
  <rect width="800" height="800" fill="url(#bg-f-27)"/><circle cx="400" cy="400" r="280" fill="none" stroke="#70503d" stroke-width="1" opacity="0.2"/><circle cx="400" cy="400" r="200" fill="url(#rad-f-27)"/><circle cx="400" cy="400" r="140" fill="none" stroke="#aa8545" stroke-width="0.5" opacity="0.3"/><circle cx="400" cy="400" r="68" fill="none" stroke="#3d1f10" stroke-width="0.9249555910238583" opacity="0.13"/><circle cx="400" cy="400" r="97" fill="none" stroke="#8f7060" stroke-width="1.532985241183066" opacity="0.07"/><circle cx="400" cy="400" r="154" fill="none" stroke="#8f7060" stroke-width="1.0543827531434435" opacity="0.11"/><circle cx="400" cy="400" r="200" fill="none" stroke="#8f7060" stroke-width="1.9762467765028093" opacity="0.06"/><circle cx="400" cy="400" r="243" fill="none" stroke="#70503d" stroke-width="0.8996049029748933" opacity="0.13"/><circle cx="400" cy="400" r="277" fill="none" stroke="#70503d" stroke-width="2.1248478606574683" opacity="0.07"/><line x1="460" y1="400" x2="660" y2="400" stroke="#70503d" stroke-width="0.5" opacity="0.15"/><line x1="437" y1="447" x2="562" y2="603" stroke="#70503d" stroke-width="0.5" opacity="0.15"/><line x1="387" y1="458" x2="342" y2="653" stroke="#70503d" stroke-width="0.5" opacity="0.15"/><line x1="346" y1="426" x2="166" y2="513" stroke="#70503d" stroke-width="0.5" opacity="0.15"/><line x1="346" y1="374" x2="166" y2="287" stroke="#70503d" stroke-width="0.5" opacity="0.15"/><line x1="387" y1="342" x2="342" y2="147" stroke="#70503d" stroke-width="0.5" opacity="0.15"/><line x1="437" y1="353" x2="562" y2="197" stroke="#70503d" stroke-width="0.5" opacity="0.15"/><circle cx="30" cy="797" r="6.2" fill="#e0d5c7" opacity="0.11"/><circle cx="301" cy="212" r="5.8" fill="#e0d5c7" opacity="0.07"/><circle cx="116" cy="606" r="6.9" fill="#70503d" opacity="0.12"/><circle cx="752" cy="201" r="3.5" fill="#70503d" opacity="0.08"/><circle cx="694" cy="325" r="4.9" fill="#3d1f10" opacity="0.13"/><circle cx="576" cy="687" r="4.6" fill="#1f0a02" opacity="0.14"/><circle cx="268" cy="524" r="5.3" fill="#aa8545" opacity="0.05"/><circle cx="598" cy="573" r="3.2" fill="#8f7060" opacity="0.08"/><circle cx="293" cy="255" r="4.9" fill="#e0d5c7" opacity="0.14"/><circle cx="38" cy="628" r="2.3" fill="#e0d5c7" opacity="0.05"/><circle cx="334" cy="680" r="2.3" fill="#1f0a02" opacity="0.07"/><circle cx="122" cy="597" r="4.2" fill="#70503d" opacity="0.10"/><circle cx="143" cy="434" r="6.1" fill="#3d1f10" opacity="0.13"/><circle cx="743" cy="31" r="2.2" fill="#aa8545" opacity="0.09"/><circle cx="238" cy="285" r="1.0" fill="#e0d5c7" opacity="0.12"/><circle cx="726" cy="697" r="2.3" fill="#8f7060" opacity="0.11"/><circle cx="732" cy="355" r="2.5" fill="#e0d5c7" opacity="0.08"/><circle cx="8" cy="209" r="2.9" fill="#aa8545" opacity="0.09"/><circle cx="207" cy="478" r="2.0" fill="#e0d5c7" opacity="0.08"/><circle cx="786" cy="128" r="5.2" fill="#1f0a02" opacity="0.10"/><circle cx="543" cy="556" r="6.8" fill="#1f0a02" opacity="0.13"/><circle cx="614" cy="769" r="1.7" fill="#3d1f10" opacity="0.07"/><circle cx="765" cy="0" r="6.6" fill="#3d1f10" opacity="0.05"/><circle cx="34" cy="389" r="2.7" fill="#1f0a02" opacity="0.06"/><circle cx="672" cy="92" r="2.8" fill="#1f0a02" opacity="0.06"/><circle cx="88" cy="185" r="4.3" fill="#8f7060" opacity="0.11"/><circle cx="750" cy="130" r="2.6" fill="#3d1f10" opacity="0.09"/><circle cx="319" cy="621" r="6.7" fill="#8f7060" opacity="0.07"/><circle cx="267" cy="480" r="1.3" fill="#70503d" opacity="0.14"/><circle cx="63" cy="690" r="5.6" fill="#aa8545" opacity="0.05"/><circle cx="692" cy="419" r="5.3" fill="#3d1f10" opacity="0.08"/><circle cx="275" cy="695" r="2.8" fill="#e0d5c7" opacity="0.14"/><circle cx="471" cy="324" r="1.1" fill="#aa8545" opacity="0.05"/><circle cx="725" cy="761" r="4.9" fill="#8f7060" opacity="0.08"/><circle cx="570" cy="96" r="2.0" fill="#1f0a02" opacity="0.12"/><circle cx="706" cy="373" r="5.2" fill="#3d1f10" opacity="0.11"/><circle cx="701" cy="623" r="5.8" fill="#1f0a02" opacity="0.06"/><circle cx="418" cy="185" r="1.7" fill="#e0d5c7" opacity="0.08"/><circle cx="772" cy="364" r="4.5" fill="#70503d" opacity="0.13"/><circle cx="370" cy="712" r="3.9" fill="#1f0a02" opacity="0.05"/><rect width="800" height="800" fill="url(#rad-f-27)" opacity="0.3"/><text x="400" y="420" text-anchor="middle" font-family="Georgia, 'Times New Roman', serif" font-size="64" fill="#1f0a02" opacity="0.12">27</text></svg>