<svg xmlns="http://www.w3.org/2000/svg" viewBox="0 0 800 800" width="800" height="800"><defs>
    <linearGradient id="bg-r-18" x1="0" y1="0" x2="0.5" y2="1">
      <stop offset="0%" stop-color="#e7ded3"/>
      <stop offset="100%" stop-color="#faf8f4"/>
    </linearGradient>
  </defs>
  <rect width="800" height="800" fill="url(#bg-r-18)"/><polygon points="280,381 616,528 216,681" fill="#8a6a30" opacity="0.14"/><polygon points="532,375 592,521 444,578 420,439" fill="#1f0a02" opacity="0.11"/><polygon points="547,258 494,413 315,415 381,244" fill="#aa8545" opacity="0.25"/><polygon points="138,283 376,462 143,574" fill="#1f0a02" opacity="0.13"/><polygon points="528,330 596,410 563,479 457,495 439,381" fill="#e0d5c7" opacity="0.27"/><polygon points="643,489 592,532 506,506 497,452 548,406 614,424" fill="#1f0a02" opacity="0.18"/><line x1="312" y1="718" x2="290" y2="31" stroke="#70503d" stroke-width="2.7267340167674554" opacity="0.17"/><line x1="592" y1="403" x2="86" y2="387" stroke="#70503d" stroke-width="1.915171134672287" opacity="0.13"/><line x1="75" y1="645" x2="549" y2="10" stroke="#3d1f10" stroke-width="1.1737143776134722" opacity="0.13"/><line x1="165" y1="651" x2="440" y2="488" stroke="#e0d5c7" stroke-width="1.0607391959621937" opacity="0.15"/><line x1="225" y1="504" x2="795" y2="321" stroke="#aa8545" stroke-width="3.930871533165566" opacity="0.10"/><line x1="575" y1="34" x2="613" y2="276" stroke="#70503d" stroke-width="1.7784838185445255" opacity="0.13"/><line x1="261" y1="474" x2="178" y2="787" stroke="#3d1f10" stroke-width="3.3358054401686466" opacity="0.08"/><line x1="769" y1="111" x2="401" y2="246" stroke="#e0d5c7" stroke-width="3.913324087311816" opacity="0.10"/><line x1="330" y1="265" x2="271" y2="410" stroke="#aa8545" stroke-width="1.421231921223208" opacity="0.20"/><line x1="705" y1="580" x2="446" y2="144" stroke="#aa8545" stroke-width="1.5768993572116823" opacity="0.08"/><rect x="370" y="380" width="157" height="132" fill="#aa8545" opacity="0.12" transform="rotate(2 448 447)"/><rect x="427" y="392" width="43" height="110" fill="#3d1f10" opacity="0.18" transform="rotate(-23 448 447)"/><rect x="420" y="421" width="56" height="52" fill="#aa8545" opacity="0.13" transform="rotate(-9 448 447)"/><text x="400" y="420" text-anchor="middle" font-family="Georgia, 'Times New Roman', serif" font-size="64" fill="#1f0a02" opacity="0.12">18</text></svg>