<svg xmlns="http://www.w3.org/2000/svg" viewBox="0 0 800 800" width="800" height="800"><defs>
    <linearGradient id="bg-m-8" x1="0" y1="0" x2="1" y2="1">
      <stop offset="0%" stop-color="#faf8f4"/>
      <stop offset="100%" stop-color="#e7ded3"/>
    </linearGradient>
  </defs>
  <rect width="800" height="800" fill="url(#bg-m-8)"/><path d="M151,110 C67,743 764,577 383,790"
      stroke="#3d1f10" stroke-width="22.76441663016045" fill="none" opacity="0.32" stroke-linecap="round"/><path d="M272,11 C542,4 627,661 539,491"
      stroke="#8f7060" stroke-width="18.418628154712383" fill="none" opacity="0.30" stroke-linecap="round"/><path d="M423,748 C555,759 481,24 525,254"
      stroke="#3d1f10" stroke-width="7.944404631801326" fill="none" opacity="0.31" stroke-linecap="round"/><path d="M530,262 C544,105 635,562 453,109"
      stroke="#e0d5c7" stroke-width="21.880219759308005" fill="none" opacity="0.35" stroke-linecap="round"/><path d="M343,655 C514,359 772,662 725,685"
      stroke="#70503d" stroke-width="17.96437319364806" fill="none" opacity="0.29" stroke-linecap="round"/><circle cx="769" cy="632" r="146" fill="#8f7060" opacity="0.22"/><circle cx="136" cy="302" r="132" fill="#e0d5c7" opacity="0.10"/><circle cx="460" cy="545" r="176" fill="#70503d" opacity="0.23"/><line x1="450" y1="628" x2="534" y2="153" stroke="#70503d" stroke-width="7.8" opacity="0.15" stroke-linecap="round"/><line x1="559" y1="125" x2="86" y2="267" stroke="#8f7060" stroke-width="7.7" opacity="0.15" stroke-linecap="round"/><line x1="617" y1="477" x2="526" y2="5" stroke="#70503d" stroke-width="4.0" opacity="0.08" stroke-linecap="round"/><line x1="335" y1="367" x2="780" y2="441" stroke="#c9a96e" stroke-width="8.4" opacity="0.13" stroke-linecap="round"/><line x1="494" y1="49" x2="3" y2="675" stroke="#aa8545" stroke-width="3.5" opacity="0.11" stroke-linecap="round"/><line x1="336" y1="425" x2="434" y2="380" stroke="#3d1f10" stroke-width="7.9" opacity="0.12" stroke-linecap="round"/><line x1="663" y1="262" x2="310" y2="365" stroke="#8f7060" stroke-width="6.3" opacity="0.13" stroke-linecap="round"/><line x1="40" y1="186" x2="796" y2="67" stroke="#70503d" stroke-width="3.8" opacity="0.12" stroke-linecap="round"/><text x="400" y="420" text-anchor="middle" font-family="Georgia, 'Times New Roman', serif" font-size="64" fill="#1f0a02" opacity="0.12">8</text></svg>