<svg xmlns="http://www.w3.org/2000/svg" viewBox="0 0 800 800" width="800" height="800"><defs>
    <radialGradient id="bg-f-24" cx="50%" cy="50%" r="60%">
      <stop offset="0%" stop-color="#faf8f4"/>
      <stop offset="100%" stop-color="#e0d5c7"/>
    </radialGradient>
    <radialGradient id="rad-f-24" cx="50%" cy="50%" r="50%">
      <stop offset="0%" stop-color="#faf8f4" stop-opacity="0.4"/>
      <stop offset="70%" stop-color="#70503d" stop-opacity="0.08"/>
      <stop offset="100%" stop-color="#1f0a02" stop-opacity="0.15"/>
    </radialGradient>
  </defs>
  <rect width="800" height="800" fill="url(#bg-f-24)"/><circle cx="400" cy="400" r="280" fill="none" stroke="#70503d" stroke-width="1" opacity="0.2"/><circle cx="400" cy="400" r="200" fill="url(#rad-f-24)"/><circle cx="400" cy="400" r="140" fill="none" stroke="#aa8545" stroke-width="0.5" opacity="0.3"/><circle cx="400" cy="400" r="66" fill="none" stroke="#aa8545" stroke-width="0.6555160807031357" opacity="0.14"/><circle cx="400" cy="400" r="113" fill="none" stroke="#aa8545" stroke-width="0.7515424361932487" opacity="0.13"/><circle cx="400" cy="400" r="157" fill="none" stroke="#8f7060" stroke-width="0.5483402247059533" opacity="0.07"/><circle cx="400" cy="400" r="190" fill="none" stroke="#3d1f10" stroke-width="1.1455526898107982" opacity="0.10"/><circle cx="400" cy="400" r="248" fill="none" stroke="#70503d" stroke-width="0.8552043580964248" opacity="0.09"/><circle cx="400" cy="400" r="294" fill="none" stroke="#1f0a02" stroke-width="1.055420320067015" opacity="0.13"/><line x1="460" y1="400" x2="660" y2="400" stroke="#70503d" stroke-width="0.5" opacity="0.15"/><line x1="437" y1="447" x2="562" y2="603" stroke="#70503d" stroke-width="0.5" opacity="0.15"/><line x1="387" y1="458" x2="342" y2="653" stroke="#70503d" stroke-width="0.5" opacity="0.15"/><line x1="346" y1="426" x2="166" y2="513" stroke="#70503d" stroke-width="0.5" opacity="0.15"/><line x1="346" y1="374" x2="166" y2="287" stroke="#70503d" stroke-width="0.5" opacity="0.15"/><line x1="387" y1="342" x2="342" y2="147" stroke="#70503d" stroke-width="0.5" opacity="0.15"/><line x1="437" y1="353" x2="562" y2="197" stroke="#70503d" stroke-width="0.5" opacity="0.15"/><circle cx="560" cy="798" r="2.3" fill="#1f0a02" opacity="0.12"/><circle cx="357" cy="100" r="6.6" fill="#70503d" opacity="0.11"/><circle cx="548" cy="361" r="1.6" fill="#1f0a02" opacity="0.11"/><circle cx="136" cy="89" r="5.2" fill="#e0d5c7" opacity="0.06"/><circle cx="705" cy="644" r="6.4" fill="#aa8545" opacity="0.07"/><circle cx="156" cy="166" r="1.5" fill="#8f7060" opacity="0.11"/><circle cx="682" cy="643" r="1.5" fill="#e0d5c7" opacity="0.09"/><circle cx="443" cy="776" r="5.0" fill="#8f7060" opacity="0.08"/><circle cx="83" cy="583" r="2.5" fill="#e0d5c7" opacity="0.09"/><circle cx="478" cy="558" r="2.2" fill="#1f0a02" opacity="0.05"/><circle cx="741" cy="693" r="2.8" fill="#8f7060" opacity="0.12"/><circle cx="375" cy="797" r="5.2" fill="#3d1f10" opacity="0.06"/><circle cx="39" cy="120" r="2.9" fill="#70503d" opacity="0.07"/><circle cx="304" cy="739" r="3.4" fill="#70503d" opacity="0.12"/><circle cx="567" cy="520" r="1.0" fill="#8f7060" opacity="0.06"/><circle cx="201" cy="353" r="6.9" fill="#e0d5c7" opacity="0.05"/><circle cx="384" cy="315" r="6.3" fill="#3d1f10" opacity="0.05"/><circle cx="7" cy="97" r="6.7" fill="#aa8545" opacity="0.11"/><circle cx="450" cy="336" r="3.2" fill="#e0d5c7" opacity="0.09"/><circle cx="254" cy="558" r="5.4" fill="#e0d5c7" opacity="0.08"/><circle cx="394" cy="583" r="3.5" fill="#e0d5c7" opacity="0.12"/><circle cx="101" cy="683" r="3.0" fill="#1f0a02" opacity="0.05"/><circle cx="413" cy="622" r="4.6" fill="#3d1f10" opacity="0.10"/><circle cx="30" cy="701" r="1.8" fill="#3d1f10" opacity="0.09"/><circle cx="64" cy="82" r="3.3" fill="#3d1f10" opacity="0.04"/><circle cx="700" cy="520" r="3.3" fill="#aa8545" opacity="0.13"/><circle cx="222" cy="293" r="3.1" fill="#3d1f10" opacity="0.14"/><circle cx="372" cy="463" r="3.4" fill="#3d1f10" opacity="0.06"/><circle cx="681" cy="338" r="3.9" fill="#e0d5c7" opacity="0.11"/><circle cx="501" cy="169" r="1.8" fill="#aa8545" opacity="0.10"/><circle cx="615" cy="461" r="4.8" fill="#8f7060" opacity="0.10"/><circle cx="333" cy="85" r="4.0" fill="#aa8545" opacity="0.05"/><circle cx="152" cy="644" r="5.8" fill="#e0d5c7" opacity="0.06"/><circle cx="111" cy="54" r="3.8" fill="#70503d" opacity="0.11"/><circle cx="62" cy="530" r="4.5" fill="#e0d5c7" opacity="0.10"/><circle cx="361" cy="509" r="3.4" fill="#3d1f10" opacity="0.06"/><circle cx="1" cy="465" r="4.6" fill="#3d1f10" opacity="0.13"/><circle cx="16" cy="431" r="4.3" fill="#3d1f10" opacity="0.06"/><circle cx="64" cy="590" r="6.7" fill="#3d1f10" opacity="0.06"/><circle cx="773" cy="100" r="2.2" fill="#3d1f10" opacity="0.07"/><rect width="800" height="800" fill="url(#rad-f-24)" opacity="0.3"/><text x="400" y="420" text-anchor="middle" font-family="Georgia, 'Times New Roman', serif" font-size="64" fill="#1f0a02" opacity="0.12">24</text></svg>