<svg xmlns="http://www.w3.org/2000/svg" viewBox="0 0 800 800" width="800" height="800"><defs>
    <linearGradient id="bg-x-33" x1="0" y1="0" x2="1" y2="0.8">
      <stop offset="0%" stop-color="#faf8f4"/>
      <stop offset="50%" stop-color="#e7ded3"/>
      <stop offset="100%" stop-color="#faf8f4"/>
    </linearGradient>
  </defs>
  <rect width="800" height="800" fill="url(#bg-x-33)"/><path d="M119,373 C321,128 496,766 682,541" stroke="#e0d5c7" stroke-width="12.896440580390804" fill="none" opacity="0.19" stroke-linecap="round"/><path d="M158,248 C330,493 539,136 638,288" stroke="#1f0a02" stroke-width="12.38954693022142" fill="none" opacity="0.25" stroke-linecap="round"/><path d="M169,315 C362,107 415,142 763,534" stroke="#3d1f10" stroke-width="3.4426360078553073" fill="none" opacity="0.24" stroke-linecap="round"/><rect x="574" y="352" width="113" height="94" fill="#70503d" opacity="0.17" rx="2" transform="rotate(6 631 399)"/><rect x="122" y="268" width="146" height="133" fill="#e0d5c7" opacity="0.15" rx="2" transform="rotate(-14 195 335)"/><rect x="502" y="337" width="246" height="237" fill="#e0d5c7" opacity="0.20" rx="2" transform="rotate(-11 625 456)"/><rect x="355" y="108" width="254" height="193" fill="#3d1f10" opacity="0.20" rx="2" transform="rotate(17 482 204)"/><circle cx="542" cy="328" r="118" fill="none" stroke="#8f7060" stroke-width="1.0942655933036147" opacity="0.15"/><circle cx="243" cy="243" r="65" fill="none" stroke="#3d1f10" stroke-width="1.1693646602047278" opacity="0.11"/><circle cx="535" cy="325" r="109" fill="none" stroke="#aa8545" stroke-width="1.9265064573162296" opacity="0.16"/><line x1="0" y1="0" x2="0" y2="800" stroke="#70503d" stroke-width="0.3" opacity="0.06"/><line x1="80" y1="0" x2="80" y2="800" stroke="#70503d" stroke-width="0.3" opacity="0.06"/><line x1="160" y1="0" x2="160" y2="800" stroke="#70503d" stroke-width="0.3" opacity="0.06"/><line x1="240" y1="0" x2="240" y2="800" stroke="#70503d" stroke-width="0.3" opacity="0.06"/><line x1="320" y1="0" x2="320" y2="800" stroke="#70503d" stroke-width="0.3" opacity="0.06"/><line x1="400" y1="0" x2="400" y2="800" stroke="#70503d" stroke-width="0.3" opacity="0.06"/><line x1="480" y1="0" x2="480" y2="800" stroke="#70503d" stroke-width="0.3" opacity="0.06"/><line x1="560" y1="0" x2="560" y2="800" stroke="#70503d" stroke-width="0.3" opacity="0.06"/><line x1="640" y1="0" x2="640" y2="800" stroke="#70503d" stroke-width="0.3" opacity="0.06"/><line x1="720" y1="0" x2="720" y2="800" stroke="#70503d" stroke-width="0.3" opacity="0.06"/><line x1="800" y1="0" x2="800" y2="800" stroke="#70503d" stroke-width="0.3" opacity="0.06"/><line x1="0" y1="0" x2="800" y2="0" stroke="#70503d" stroke-width="0.3" opacity="0.06"/><line x1="0" y1="80" x2="800" y2="80" stroke="#70503d" stroke-width="0.3" opacity="0.06"/><line x1="0" y1="160" x2="800" y2="160" stroke="#70503d" stroke-width="0.3" opacity="0.06"/><line x1="0" y1="240" x2="800" y2="240" stroke="#70503d" stroke-width="0.3" opacity="0.06"/><line x1="0" y1="320" x2="800" y2="320" stroke="#70503d" stroke-width="0.3" opacity="0.06"/><line x1="0" y1="400" x2="800" y2="400" stroke="#70503d" stroke-width="0.3" opacity="0.06"/><line x1="0" y1="480" x2="800" y2="480" stroke="#70503d" stroke-width="0.3" opacity="0.06"/><line x1="0" y1="560" x2="800" y2="560" stroke="#70503d" stroke-width="0.3" opacity="0.06"/><line x1="0" y1="640" x2="800" y2="640" stroke="#70503d" stroke-width="0.3" opacity="0.06"/><line x1="0" y1="720" x2="800" y2="720" stroke="#70503d" stroke-width="0.3" opacity="0.06"/><line x1="0" y1="800" x2="800" y2="800" stroke="#70503d" stroke-width="0.3" opacity="0.06"/><text x="400" y="420" text-anchor="middle" font-family="Georgia, 'Times New Roman', serif" font-size="64" fill="#1f0a02" opacity="0.12">33</text></svg>