<svg xmlns="http://www.w3.org/2000/svg" viewBox="0 0 800 800" width="800" height="800"><defs>
    <linearGradient id="bg-x-36" x1="0" y1="0" x2="1" y2="0.8">
      <stop offset="0%" stop-color="#faf8f4"/>
      <stop offset="50%" stop-color="#e7ded3"/>
      <stop offset="100%" stop-color="#faf8f4"/>
    </linearGradient>
  </defs>
  <rect width="800" height="800" fill="url(#bg-x-36)"/><path d="M148,352 C332,721 560,690 726,499" stroke="#c9a96e" stroke-width="13.796116997297963" fill="none" opacity="0.31" stroke-linecap="round"/><path d="M172,507 C378,538 443,148 751,477" stroke="#70503d" stroke-width="4.515869374867407" fill="none" opacity="0.13" stroke-linecap="round"/><path d="M20,217 C395,263 435,83 741,273" stroke="#e0d5c7" stroke-width="7.846512011109397" fill="none" opacity="0.27" stroke-linecap="round"/><rect x="572" y="103" width="227" height="61" fill="#70503d" opacity="0.13" rx="2" transform="rotate(4 686 133)"/><rect x="579" y="193" width="135" height="212" fill="#e0d5c7" opacity="0.19" rx="2" transform="rotate(8 646 299)"/><rect x="448" y="495" width="227" height="180" fill="#aa8545" opacity="0.20" rx="2" transform="rotate(-6 561 585)"/><rect x="469" y="381" width="217" height="132" fill="#aa8545" opacity="0.09" rx="2" transform="rotate(-0 577 447)"/><circle cx="246" cy="412" r="35" fill="none" stroke="#3d1f10" stroke-width="3.2846533756560214" opacity="0.15"/><circle cx="356" cy="501" r="41" fill="none" stroke="#aa8545" stroke-width="2.002943266185879" opacity="0.10"/><circle cx="529" cy="482" r="117" fill="none" stroke="#aa8545" stroke-width="3.374370681470605" opacity="0.09"/><line x1="0" y1="0" x2="0" y2="800" stroke="#70503d" stroke-width="0.3" opacity="0.06"/><line x1="80" y1="0" x2="80" y2="800" stroke="#70503d" stroke-width="0.3" opacity="0.06"/><line x1="160" y1="0" x2="160" y2="800" stroke="#70503d" stroke-width="0.3" opacity="0.06"/><line x1="240" y1="0" x2="240" y2="800" stroke="#70503d" stroke-width="0.3" opacity="0.06"/><line x1="320" y1="0" x2="320" y2="800" stroke="#70503d" stroke-width="0.3" opacity="0.06"/><line x1="400" y1="0" x2="400" y2="800" stroke="#70503d" stroke-width="0.3" opacity="0.06"/><line x1="480" y1="0" x2="480" y2="800" stroke="#70503d" stroke-width="0.3" opacity="0.06"/><line x1="560" y1="0" x2="560" y2="800" stroke="#70503d" stroke-width="0.3" opacity="0.06"/><line x1="640" y1="0" x2="640" y2="800" stroke="#70503d" stroke-width="0.3" opacity="0.06"/><line x1="720" y1="0" x2="720" y2="800" stroke="#70503d" stroke-width="0.3" opacity="0.06"/><line x1="800" y1="0" x2="800" y2="800" stroke="#70503d" stroke-width="0.3" opacity="0.06"/><line x1="0" y1="0" x2="800" y2="0" stroke="#70503d" stroke-width="0.3" opacity="0.06"/><line x1="0" y1="80" x2="800" y2="80" stroke="#70503d" stroke-width="0.3" opacity="0.06"/><line x1="0" y1="160" x2="800" y2="160" stroke="#70503d" stroke-width="0.3" opacity="0.06"/><line x1="0" y1="240" x2="800" y2="240" stroke="#70503d" stroke-width="0.3" opacity="0.06"/><line x1="0" y1="320" x2="800" y2="320" stroke="#70503d" stroke-width="0.3" opacity="0.06"/><line x1="0" y1="400" x2="800" y2="400" stroke="#70503d" stroke-width="0.3" opacity="0.06"/><line x1="0" y1="480" x2="800" y2="480" stroke="#70503d" stroke-width="0.3" opacity="0.06"/><line x1="0" y1="560" x2="800" y2="560" stroke="#70503d" stroke-width="0.3" opacity="0.06"/><line x1="0" y1="640" x2="800" y2="640" stroke="#70503d" stroke-width="0.3" opacity="0.06"/><line x1="0" y1="720" x2="800" y2="720" stroke="#70503d" stroke-width="0.3" opacity="0.06"/><line x1="0" y1="800" x2="800" y2="800" stroke="#70503d" stroke-width="0.3" opacity="0.06"/><text x="400" y="420" text-anchor="middle" font-family="Georgia, 'Times New Roman', serif" font-size="64" fill="#1f0a02" opacity="0.12">36</text></svg>